<svg xmlns="http://www.w3.org/2000/svg" width="211.045" height="104.088" viewBox="0 0 211.045 104.088">
  <g id="_404" data-name="404" transform="translate(0.393 -12.578)">
    <ellipse id="椭圆_39" data-name="椭圆 39" cx="103.152" cy="6.833" rx="103.152" ry="6.833" transform="translate(2.572 103)" fill="#f2f2f2"/>
    <path id="路径_219" data-name="路径 219" d="M464.718,324.894c-16.816,0-28.889,10.788-28.889,35.962,0,28.53,12.074,36.082,28.889,36.082s29.608-8.271,29.608-36.082C494.327,331.128,481.534,324.894,464.718,324.894Zm.111,62.573c-11.647,0-17.732-6.833-17.732-26.593,0-17.436,6.334-26.63,17.981-26.63s17.981,6.04,17.981,26.63c0,19.262-6.583,26.593-18.23,26.593Z" transform="translate(-362.948 -289.862)" fill="#2f2e41"/>
    <path id="路径_220" data-name="路径 220" d="M170,388.676H163.05V368.2a4.1,4.1,0,0,0-4.1-4.1h-1.629a4.1,4.1,0,0,0-4.1,4.1v20.474H133.61a2.341,2.341,0,0,1-2.07-3.434L152.3,345.957a4.1,4.1,0,0,0-1.875-5.623l-1.225-.579a4.1,4.1,0,0,0-5.367,1.775l-25.315,47.356a5.56,5.56,0,0,0-.657,2.621h0a5.56,5.56,0,0,0,5.56,5.56h29.8v12.946a4.915,4.915,0,0,0,4.915,4.915h0a4.915,4.915,0,0,0,4.915-4.915V397.067H170a4.2,4.2,0,0,0,4.2-4.2h0a4.2,4.2,0,0,0-4.2-4.2Z" transform="translate(-107.135 -301.499)" fill="#345dfd"/>
    <path id="路径_221" data-name="路径 221" d="M828,388.676h-6.953V368.2a4.1,4.1,0,0,0-4.1-4.1h-1.629a4.1,4.1,0,0,0-4.1,4.1v20.474H791.607a2.341,2.341,0,0,1-2.07-3.434l20.756-39.284a4.1,4.1,0,0,0-1.874-5.623l-1.225-.579a4.1,4.1,0,0,0-5.367,1.775l-25.315,47.356a5.56,5.56,0,0,0-.657,2.621h0a5.56,5.56,0,0,0,5.56,5.56h29.8v12.946a4.915,4.915,0,0,0,4.915,4.915h0a4.915,4.915,0,0,0,4.915-4.915V397.067H828a4.2,4.2,0,0,0,4.2-4.2h0A4.2,4.2,0,0,0,828,388.676Z" transform="translate(-636.506 -301.499)" fill="#345dfd"/>
    <path id="路径_222" data-name="路径 222" d="M179.806,376.423h-6.953V355.949a4.1,4.1,0,0,0-4.1-4.1h-1.629a4.1,4.1,0,0,0-4.1,4.1v20.474H143.412a2.341,2.341,0,0,1-2.07-3.434L162.1,333.7a4.1,4.1,0,0,0-1.874-5.623L159,327.5a4.1,4.1,0,0,0-5.367,1.775l-25.315,47.356a5.56,5.56,0,0,0-.657,2.621h0a5.56,5.56,0,0,0,5.56,5.56h29.8V397.76a4.915,4.915,0,0,0,4.915,4.915h0a4.915,4.915,0,0,0,4.915-4.915V384.814h6.953a4.2,4.2,0,0,0,4.2-4.2h0a4.2,4.2,0,0,0-4.2-4.2Z" transform="translate(-115.02 -291.644)" fill="none" stroke="#3f3d56" stroke-miterlimit="10" stroke-width="1"/>
    <path id="路径_223" data-name="路径 223" d="M846.378,376.423h-6.953V355.949a4.1,4.1,0,0,0-4.1-4.1H833.7a4.1,4.1,0,0,0-4.1,4.1v20.474H809.986a2.341,2.341,0,0,1-2.07-3.434L828.672,333.7a4.1,4.1,0,0,0-1.874-5.623l-1.225-.579a4.1,4.1,0,0,0-5.367,1.775l-25.315,47.356a5.559,5.559,0,0,0-.657,2.621h0a5.56,5.56,0,0,0,5.56,5.56h29.8V397.76a4.915,4.915,0,0,0,4.915,4.915h0a4.915,4.915,0,0,0,4.915-4.915V384.814h6.953a4.2,4.2,0,0,0,4.2-4.2h0a4.2,4.2,0,0,0-4.2-4.2Z" transform="translate(-651.289 -291.644)" fill="none" stroke="#3f3d56" stroke-miterlimit="10" stroke-width="1"/>
    <path id="路径_224" data-name="路径 224" d="M484.323,313.866c-16.816,0-28.889,10.789-28.889,35.962,0,28.53,12.074,36.082,28.889,36.082s29.608-8.271,29.608-36.082C513.932,320.1,501.139,313.866,484.323,313.866Zm.111,62.573c-11.647,0-17.732-6.833-17.732-26.593,0-17.436,6.334-26.63,17.981-26.63s17.981,6.04,17.981,26.63c0,19.262-6.583,26.593-18.23,26.593Z" transform="translate(-378.72 -280.991)" fill="none" stroke="#3f3d56" stroke-miterlimit="10" stroke-width="1"/>
    <path id="路径_240" data-name="路径 240" d="M1058.893,544.96a4.072,4.072,0,1,0,.542-7.81l.1,2.1-.992-1.8a4.057,4.057,0,0,0-2.09,2.294,3.992,3.992,0,0,0-.234,1.1A4.072,4.072,0,0,0,1058.893,544.96Z" transform="translate(-862.008 -460.516)" fill="#57b894"/>
    <path id="路径_241" data-name="路径 241" d="M1091.846,554.881c-.35-1.783,1.167-3.363,2.665-4.39s3.249-2.036,3.76-3.779c.735-2.505-1.454-4.8-3.157-6.778a24.511,24.511,0,0,1-3.233-4.8,6.614,6.614,0,0,1-.773-2.185,7.542,7.542,0,0,1,.582-3.275q1.8-5.293,3.84-10.5" transform="translate(-890.053 -446.128)" fill="none" stroke="#3f3d56" stroke-miterlimit="10" stroke-width="1"/>
    <path id="路径_242" data-name="路径 242" d="M1059.743,542.2a4.072,4.072,0,1,0,.542-7.81l.1,2.1-.992-1.8a4.057,4.057,0,0,0-2.09,2.294,3.991,3.991,0,0,0-.234,1.1A4.072,4.072,0,0,0,1059.743,542.2Z" transform="translate(-862.691 -458.297)" fill="none" stroke="#3f3d56" stroke-miterlimit="10" stroke-width="1"/>
    <path id="路径_243" data-name="路径 243" d="M1091.445,504.446a4.068,4.068,0,0,1,2.931-2.582l.335,1.993.622-2.093a4.072,4.072,0,1,1-3.888,2.682Z" transform="translate(-890.151 -432.125)" fill="#57b894"/>
    <path id="路径_244" data-name="路径 244" d="M1092.585,500.768a4.067,4.067,0,0,1,2.931-2.582l.335,1.993.622-2.093a4.072,4.072,0,1,1-3.888,2.682Z" transform="translate(-891.068 -429.167)" fill="none" stroke="#3f3d56" stroke-miterlimit="10" stroke-width="1"/>
    <path id="路径_245" data-name="路径 245" d="M1097,593.009a4.072,4.072,0,0,0,3.6-7.244l-.478,1.608-.339-2.016-.01,0a4.072,4.072,0,1,0-2.777,7.656Z" transform="translate(-892.66 -499.163)" fill="#57b894"/>
    <path id="路径_246" data-name="路径 246" d="M1098,589.284a4.072,4.072,0,0,0,3.6-7.244l-.478,1.608-.339-2.016-.01,0a4.072,4.072,0,1,0-2.777,7.656Z" transform="translate(-893.464 -496.167)" fill="none" stroke="#3f3d56" stroke-miterlimit="10" stroke-width="1"/>
    <path id="路径_247" data-name="路径 247" d="M1086.123,640.422a4.07,4.07,0,1,0,.785-3.189l1.814,2.731-2.479-1.449A4.034,4.034,0,0,0,1086.123,640.422Z" transform="translate(-886.017 -539.814)" fill="#57b894"/>
    <path id="路径_248" data-name="路径 248" d="M1086.973,637.665a4.07,4.07,0,1,0,.785-3.189l1.814,2.731-2.479-1.449A4.034,4.034,0,0,0,1086.973,637.665Z" transform="translate(-886.7 -537.596)" fill="none" stroke="#3f3d56" stroke-miterlimit="10" stroke-width="1"/>
    <path id="路径_249" data-name="路径 249" d="M64.817,606.8a2.675,2.675,0,1,0,.356-5.131l.067,1.377-.652-1.18a2.665,2.665,0,0,0-1.373,1.507,2.623,2.623,0,0,0-.154.724A2.675,2.675,0,0,0,64.817,606.8Z" transform="translate(-63.054 -512.433)" fill="#57b894"/>
    <path id="路径_250" data-name="路径 250" d="M86.466,613.315c-.23-1.171.767-2.209,1.751-2.884s2.135-1.338,2.47-2.483c.483-1.646-.955-3.153-2.074-4.453a16.105,16.105,0,0,1-2.124-3.157,4.345,4.345,0,0,1-.508-1.435,4.954,4.954,0,0,1,.382-2.152q1.18-3.478,2.523-6.9" transform="translate(-81.479 -502.98)" fill="none" stroke="#3f3d56" stroke-miterlimit="10" stroke-width="1"/>
    <path id="路径_251" data-name="路径 251" d="M65.38,604.985a2.675,2.675,0,1,0,.356-5.131l.067,1.377-.652-1.18a2.665,2.665,0,0,0-1.373,1.507,2.624,2.624,0,0,0-.154.724A2.675,2.675,0,0,0,65.38,604.985Z" transform="translate(-63.507 -510.976)" fill="none" stroke="#3f3d56" stroke-miterlimit="10" stroke-width="1"/>
    <path id="路径_252" data-name="路径 252" d="M86.206,580.178a2.672,2.672,0,0,1,1.926-1.7l.22,1.309.408-1.375a2.675,2.675,0,1,1-2.554,1.762Z" transform="translate(-81.547 -493.779)" fill="#57b894"/>
    <path id="路径_253" data-name="路径 253" d="M86.957,577.762a2.673,2.673,0,0,1,1.926-1.7l.22,1.309L89.512,576a2.675,2.675,0,1,1-2.554,1.762Z" transform="translate(-82.151 -491.837)" fill="none" stroke="#3f3d56" stroke-miterlimit="10" stroke-width="1"/>
    <path id="路径_254" data-name="路径 254" d="M89.861,638.366a2.675,2.675,0,0,0,2.368-4.759l-.314,1.057-.223-1.325-.007,0a2.675,2.675,0,0,0-1.825,5.03Z" transform="translate(-83.197 -537.825)" fill="#57b894"/>
    <path id="路径_255" data-name="路径 255" d="M90.512,635.919a2.675,2.675,0,0,0,2.368-4.759l-.314,1.057-.223-1.325-.007,0a2.675,2.675,0,1,0-1.825,5.03Z" transform="translate(-83.72 -535.857)" fill="none" stroke="#3f3d56" stroke-miterlimit="10" stroke-width="1"/>
    <path id="路径_256" data-name="路径 256" d="M82.707,669.518a2.674,2.674,0,1,0,.516-2.1l1.192,1.794-1.629-.952A2.65,2.65,0,0,0,82.707,669.518Z" transform="translate(-78.828 -564.533)" fill="#57b894"/>
    <path id="路径_257" data-name="路径 257" d="M83.27,667.706a2.674,2.674,0,1,0,.516-2.1l1.192,1.794-1.629-.952A2.65,2.65,0,0,0,83.27,667.706Z" transform="translate(-79.281 -563.076)" fill="none" stroke="#3f3d56" stroke-miterlimit="10" stroke-width="1"/>
    <ellipse id="椭圆_44" data-name="椭圆 44" cx="3.326" cy="4.304" rx="3.326" ry="4.304" transform="translate(90.723 60.489)" fill="#2f2e41"/>
    <ellipse id="椭圆_45" data-name="椭圆 45" cx="3.326" cy="4.304" rx="3.326" ry="4.304" transform="translate(108.811 60.587)" fill="#2f2e41"/>
    <path id="路径_258" data-name="路径 258" d="M573.631,528.022c0,1.945-2.716,3.522-6.065,3.522s-6.065-1.577-6.065-3.522c0-1.685,2.037-3.093,4.758-3.438a9.789,9.789,0,0,1,1.307-.084,9.92,9.92,0,0,1,2.178.235C572.017,525.241,573.631,526.523,573.631,528.022Z" transform="translate(-464.032 -450.413)" fill="#2f2e41"/>
    <ellipse id="椭圆_46" data-name="椭圆 46" cx="3.326" cy="4.304" rx="3.326" ry="4.304" transform="translate(91.506 59.511)" fill="none" stroke="#3f3d56" stroke-miterlimit="10" stroke-width="1"/>
    <ellipse id="椭圆_47" data-name="椭圆 47" cx="3.326" cy="4.304" rx="3.326" ry="4.304" transform="translate(109.594 59.608)" fill="none" stroke="#3f3d56" stroke-miterlimit="10" stroke-width="1"/>
    <ellipse id="椭圆_48" data-name="椭圆 48" cx="6.065" cy="3.522" rx="6.065" ry="3.522" transform="translate(98.25 73.109)" fill="none" stroke="#3f3d56" stroke-miterlimit="10" stroke-width="1"/>
    <path id="路径_259" data-name="路径 259" d="M588.716,524.626a.966.966,0,0,1-.258.664.849.849,0,0,1-.622.275h-1.957a.913.913,0,0,1-.88-.939.96.96,0,0,1,.16-.536,9.208,9.208,0,0,1,1.307-.09,9.33,9.33,0,0,1,2.178.25A.992.992,0,0,1,588.716,524.626Z" transform="translate(-482.932 -450.011)" fill="#fff"/>
    <circle id="椭圆_49" data-name="椭圆 49" cx="0.978" cy="0.978" r="0.978" transform="translate(93.853 61.663)" fill="#fff"/>
    <circle id="椭圆_50" data-name="椭圆 50" cx="0.978" cy="0.978" r="0.978" transform="translate(112.039 61.663)" fill="#fff"/>
    <circle id="椭圆_51" data-name="椭圆 51" cx="0.978" cy="0.978" r="0.978" transform="translate(113.017 70.859)" fill="#345dfd" opacity="0.3"/>
    <circle id="椭圆_52" data-name="椭圆 52" cx="0.978" cy="0.978" r="0.978" transform="translate(89.16 70.859)" fill="#345dfd" opacity="0.3"/>
    <g id="组_25" data-name="组 25" transform="translate(96.749 12.578)">
      <path id="路径_207" data-name="路径 207" d="M919.936,295.873s-.562,1.847-.241,2.409-.562,1.767-2.008,1.2-1.526-1.2-1.526-1.2a6.5,6.5,0,0,0,.723-2.73Z" transform="translate(-911.93 -291.076)" fill="#a0616a"/>
      <path id="路径_208" data-name="路径 208" d="M978.028,508.858s2.891,1.446,1.606,3.373c-.747,1.12-2.172,3.3-3.235,4.927a16.429,16.429,0,0,0-2.024,4.412l-.2.7-.8.964-1.686-1.927s2.49-4.578,2.49-5.461,2.008-3.694,2.008-3.694l-2.008-1.285S976.422,508.3,978.028,508.858Z" transform="translate(-962.674 -485.952)" fill="#a0616a"/>
      <path id="路径_209" data-name="路径 209" d="M904.668,562.613s-.08,2.249-.161,3.132c-.066.729.578,2.769.355,5.04a21.334,21.334,0,0,0,.049,4.413l.319,2.915-2.409.241-.8-6.585a41.151,41.151,0,0,1-.241-6.184l-.08-3.212A3.574,3.574,0,0,1,904.668,562.613Z" transform="translate(-898.71 -534.728)" fill="#a0616a"/>
      <path id="路径_210" data-name="路径 210" d="M894.04,451.179s5.622,3.614,5.7,4.738c0,0-3.212-.321-3.293,2.49,0,0-1.927-.723-2.409-.883s-3.052-1.847-3.052-1.847a2.871,2.871,0,0,0-1.044,2.088c0,1.285.08,3.534,0,3.694s-1.927-2.168-3.453-.161l-1.044-5.541s-.321-3.373.321-3.614l4.5-1.686Z" transform="translate(-883.785 -432.65)" fill="#2f2e41"/>
      <circle id="椭圆_38" data-name="椭圆 38" cx="2.409" cy="2.409" r="2.409" transform="translate(4.433 0.982)" fill="#a0616a"/>
      <path id="路径_211" data-name="路径 211" d="M878.2,325.094s-2.717.718-3.085-.645c0,0-3.339.645-3.9,2.813s1.365,7.388,1.365,7.549-1.606,1.124-.883,1.606,1.365-.08,1.044.562-.883.8-.4.964,3.373-2.329,5.622-1.686a5.457,5.457,0,0,0,3.373.161l1.009-8.714a2.013,2.013,0,0,0-.716-1.786,4.429,4.429,0,0,0-1.818-.983c-1.285-.241-1.338-.373-1.338-.373Z" transform="translate(-870.754 -317.487)" fill="#d0cde1"/>
      <path id="路径_212" data-name="路径 212" d="M961.471,495.248s-.723,4.1-1.686,3.534.241-3.534.241-3.534Z" transform="translate(-951.458 -473.587)" fill="#a0616a"/>
      <path id="路径_213" data-name="路径 213" d="M930.753,501.406s1.252,3.966.138,3.913-1.42-3.245-1.42-3.245Z" transform="translate(-924.094 -479.215)" fill="#a0616a"/>
      <path id="路径_214" data-name="路径 214" d="M965.244,649.355s.562-.642.883.241a9.352,9.352,0,0,0,1.2,2.008s1.927,2.168.562,2.249-3.293-1.927-3.293-1.927l-2.249-2.088s.745-1.815,1.1-1.831S963.718,650.158,965.244,649.355Z" transform="translate(-954.146 -613.198)" fill="#2f2e41"/>
      <path id="路径_215" data-name="路径 215" d="M907.664,735.617s.566.165.524-.52c0,0,2.046,1.082,1.484,1.885l-.017.024a7.582,7.582,0,0,1-3.135,2.575c-.618.273-1.167.455-1.265.292a2.031,2.031,0,0,1-.08-1.526c.161-.321.964-.883.723-1.365s.08-1.767.482-1.767A4.837,4.837,0,0,1,907.664,735.617Z" transform="translate(-901.786 -692.795)" fill="#2f2e41"/>
      <path id="路径_216" data-name="路径 216" d="M921.3,244.9s-.775-1.679-2.26-1.292-2.325.969-2.39,1.55a8.3,8.3,0,0,0,.032,1.453s.161-1.195,1.195-.936a9.218,9.218,0,0,0,2.648.065l.258,2.325s.291-.42.614-.161S922.334,245.414,921.3,244.9Z" transform="translate(-912.356 -243.548)" fill="#2f2e41"/>
      <path id="路径_217" data-name="路径 217" d="M868.811,351.326s1.927,5.22,1.767,5.862,0,.723.241.883a9.386,9.386,0,0,1,.883,1.847,4.2,4.2,0,0,0,.723,1.2c.321.241.321.883.321.883s.8.8.642.964-.161.4.161.642.642.562.482.642-1.285.964-1.606.883.161-.4-.241-.562-.642-.4-.482-.482.642-.08.161-.241a5.852,5.852,0,0,1-2.73-2.49c-.562-1.285-3.256-9.059-1.628-10.151A.746.746,0,0,1,868.811,351.326Z" transform="translate(-866.988 -341.631)" fill="#d0cde1"/>
      <path id="路径_218" data-name="路径 218" d="M963.6,345.942l.033.014a2.022,2.022,0,0,1,1.2,1.454,10.319,10.319,0,0,1,.212,3.19,11.458,11.458,0,0,1-.723,3.533c-.321.642-.4.4-.321.883s.482.08.08.723-.642.482-.482.8.4.321.08.723a2.243,2.243,0,0,0-.4.723c-.08.161-.321,1.365-.321,1.365a5.229,5.229,0,0,0-2.008-.241s.642-1.124.482-1.365-.4-.321-.161-.562.642-.161.241-.4.321-2.73.321-2.73Z" transform="translate(-952.866 -337.13)" fill="#d0cde1"/>
    </g>
  </g>
</svg>
