<svg xmlns="http://www.w3.org/2000/svg" width="122.502" height="26.167" viewBox="0 0 122.502 26.167">
  <g id="logo" transform="translate(-128 -587.163)">
    <g id="logo_字" transform="translate(180.735 589.163)">
      <path id="路径_5" data-name="路径 5" d="M83.441,56.261h.687q1.2,1.709,1.264,1.794c.089.143.156.243.2.3q.023-.043.2-.3.089-.107,1.264-1.794h.71L85.858,58.8v1.8h-.6V58.8Zm-3.5,4.338-1.509-3.867H78.39V60.6h-.577V56.24h1l1.4,3.739h.022l1.354-3.739h1.02V60.6h-.6V56.71h-.022q-.133.384-1.465,3.889Zm-2.9,0H73.607V56.24l3.35.021v.491H74.227v1.389H76.8v.47H74.227V60.15h2.818Zm-6.6-3.846h-.91v3.4h.91a1.491,1.491,0,0,0,1.663-1.709A1.531,1.531,0,0,0,70.442,56.752Zm.022,3.846H68.933V56.261h1.531a2,2,0,0,1,2.263,2.158Q72.793,60.662,70.464,60.6ZM66.19,56.774l-.865,2.137h1.731Zm.333-.534L68.387,60.6h-.666l-.511-1.218H65.147L64.66,60.6h-.666l1.842-4.359ZM63.6,57.479l-.6.149a1.325,1.325,0,0,0-1.286-.939q-1.377.105-1.465,1.752.066,1.667,1.442,1.773a1.278,1.278,0,0,0,1.354-1.154l.621.171a1.809,1.809,0,0,1-1.952,1.432,2.023,2.023,0,0,1-2.108-2.2A2.078,2.078,0,0,1,61.74,56.2,1.88,1.88,0,0,1,63.6,57.479Zm-6.559-.705-.866,2.137H57.91Zm.332-.534L59.241,60.6h-.666l-.511-1.218H56L55.513,60.6h-.666l1.842-4.359Zm-9.542,2.008v1.6a2.119,2.119,0,0,1-1.974.812,2.234,2.234,0,0,1-.067-4.466,1.967,1.967,0,0,1,2.019,1.2l-.6.193a1.374,1.374,0,0,0-1.442-.9q-1.421.105-1.509,1.773a1.606,1.606,0,0,0,1.6,1.752,1.8,1.8,0,0,0,1.42-.555v-.919H45.772v-.491Zm-8.866-1.987h.776l2.375,3.717h.022V56.261h.577V60.6h-.732l-2.419-3.7v3.7h-.6ZM37.246,60.6V56.261h.6V60.6Zm-3.208-3.846h-.91v3.4h.91A1.491,1.491,0,0,0,35.7,58.44,1.531,1.531,0,0,0,34.038,56.752ZM34.06,60.6H32.529V56.261H34.06a2,2,0,0,1,2.263,2.158Q36.39,60.662,34.06,60.6Zm-6.336-4.338H28.5l2.374,3.717H30.9V56.261h.577V60.6h-.732l-2.419-3.7v3.7h-.6Zm-4.807,2.521V56.261h.6v2.521q0,1.41,1.264,1.41,1.265.022,1.265-1.432v-2.5h.621v2.5a1.66,1.66,0,0,1-1.908,1.9Q22.916,60.685,22.916,58.782ZM18,56.261h.687q1.2,1.709,1.265,1.794c.089.143.155.243.2.3.014-.029.081-.129.2-.3q.089-.107,1.264-1.794h.711L20.419,58.8v1.8h-.6V58.8Z" transform="translate(-18 -39.079)" fill="#fff" fill-rule="evenodd"/>
      <path id="路径_6" data-name="路径 6" d="M78.364,45.685V43.46h8.847v2.225Zm2.255-3.775v.944H78.052v-3.1h3.331l-.243-.674h2.776l.242.674h3.3v3.1H84.887V41.91Zm7.148,8.326-.694,3.421H82.667V48.988h-.694l-2.013,4.8H77.253l2.047-4.8H77.982V46.7h9.472v2.292H85.1v2.427h.382l.277-1.179ZM71.39,53.792V39.347h6.593l-1.319,5.124h.625V52.68H74.3V50.4h.556V45.617h-.833l1.042-3.977h-1.25V53.792Zm-1.65-11.073h-2.5l-.763-3.3h2.5Zm-9.4-2.225h6.314l-.242,4.988h2.5l-.555,7.8h-5.2V51.045h2.776l.207-3.271H60.336v6.017H57.768V47.774H53.535V45.482h4.233v-2.7H54.3V40.494h3.469V39.078h2.568Zm0,2.292v2.7h3.469l.139-2.7Zm-8.66,11.242L46.541,51.82l-5.135,2.106V51.112l3.886-1.349V45.617h2.5V49.73l3.886,1.652Zm-15.613-.237V51.617h1.249V41.774H35.646V39.482h5.343v2.292H39.88V53.792Zm5.482-11.209h3.538l.139-.809H41.441V39.482h10.3v2.292H47.791l-.139.809h3.886V50h-2.5V44.875h-5V50h-2.5Zm-12.962,6.1h2.81l2.464,5.005H18L21.817,47H18.277V44.707H33.891V47H24.766l-2.533,4.45H29.9Zm-9.82-6.911V39.482H33.2v2.292Z" transform="translate(-18 -39.078)" fill="#fff" fill-rule="evenodd"/>
    </g>
    <g id="logo-2" data-name="logo" transform="translate(128 587.163)">
      <path id="SVGID" d="M53.386,34.239c0,3.649-2.554,7.172-5.869,7.9a1.062,1.062,0,0,1-.226.025H21.84a1.1,1.1,0,0,1,0-2.194H47.171a6.023,6.023,0,0,0,4.071-5.733,5.327,5.327,0,0,0-4.531-5.319,1.1,1.1,0,0,1-.868-1.451,7.109,7.109,0,0,0,.385-2.315,6.773,6.773,0,0,0-13.293-2.011,1.075,1.075,0,0,1-1.027.781H24.653a1.1,1.1,0,0,1,0-2.194h6.5A8.942,8.942,0,0,1,39.438,16a9.046,9.046,0,0,1,8.935,9.154,9.4,9.4,0,0,1-.185,1.86A7.548,7.548,0,0,1,53.386,34.239Z" transform="translate(-13.264 -16)" fill="#fff"/>
      <path id="SVGID-2" data-name="SVGID" d="M10.863,42.93a1.1,1.1,0,0,1,0-2.193H29.034a1.1,1.1,0,0,1,0,2.193Zm-7.02,0a1.1,1.1,0,0,1,0-2.193H8.407a1.1,1.1,0,0,1,0,2.193Z" transform="translate(-2.771 -30.238)" fill="#fff"/>
      <path id="SVGID-3" data-name="SVGID" d="M28.519,53.082a1.1,1.1,0,0,1,0-2.194h1.765a1.1,1.1,0,0,1,0,2.194Zm-17.148,0a1.1,1.1,0,0,1,0-2.194h14.7a1.1,1.1,0,0,1,0,2.194Z" transform="translate(-7.161 -36.082)" fill="#fff"/>
      <path id="SVGID-4" data-name="SVGID" d="M6.23,62.958a1.1,1.1,0,0,1,0-2.194H29.362a1.1,1.1,0,0,1,0,2.194Z" transform="translate(-4.163 -41.766)" fill="#fff"/>
    </g>
  </g>
</svg>
