<svg id="宣讲会" xmlns="http://www.w3.org/2000/svg" width="293.572" height="222.878" viewBox="0 0 293.572 222.878">
  <path id="路径_5" data-name="路径 5" d="M199.32,219.555c-63.188-4.809-138.542-53.769-134.706-104.181S141.432,18.032,204.62,22.84s99.561,99.021,95.724,149.433S262.508,224.364,199.32,219.555Z" transform="translate(-57.287 -22.5)" fill="#f2f2f2"/>
  <ellipse id="椭圆_11" data-name="椭圆 11" cx="131.902" cy="8.081" rx="131.902" ry="8.081" transform="translate(15.43 188.99)" fill="#3f3d56"/>
  <ellipse id="椭圆_12" data-name="椭圆 12" cx="112.351" cy="5.344" rx="112.351" ry="5.344" transform="translate(34.981 191.597)" opacity="0.1"/>
  <ellipse id="椭圆_13" data-name="椭圆 13" cx="55.314" cy="4.823" rx="55.314" ry="4.823" transform="translate(0 213.233)" fill="#3f3d56"/>
  <ellipse id="椭圆_14" data-name="椭圆 14" cx="47.115" cy="3.189" rx="47.115" ry="3.189" transform="translate(8.199 214.789)" opacity="0.1"/>
  <rect id="矩形_73" data-name="矩形 73" width="196.029" height="153.799" transform="translate(51.143 42.23)" fill="#3f3d56"/>
  <path id="路径_6" data-name="路径 6" d="M461.719,261.8h-48.36a.587.587,0,1,1,0-1.174h48.36a.587.587,0,0,1,0,1.174Z" transform="translate(-314.792 -198.552)" fill="#f2f2f2"/>
  <path id="路径_7" data-name="路径 7" d="M586.232,286.566H510.171a.587.587,0,1,1,0-1.174h76.061a.587.587,0,1,1,0,1.174Z" transform="translate(-386.367 -216.862)" fill="#f2f2f2"/>
  <path id="路径_8" data-name="路径 8" d="M462.62,311.332h-48.36a.587.587,0,1,1,0-1.174h48.36a.587.587,0,1,1,0,1.174Z" transform="translate(-315.458 -235.173)" fill="#f2f2f2"/>
  <path id="路径_9" data-name="路径 9" d="M664.8,311.782h-48.36a.587.587,0,0,1,0-1.174H664.8a.587.587,0,0,1,0,1.174Z" transform="translate(-464.933 -235.505)" fill="#f2f2f2"/>
  <path id="路径_10" data-name="路径 10" d="M463.07,336.1h-48.36a.587.587,0,1,1,0-1.174h48.36a.587.587,0,1,1,0,1.174Z" transform="translate(-315.79 -253.482)" fill="#f2f2f2"/>
  <path id="路径_11" data-name="路径 11" d="M463.52,360.863h-48.36a.587.587,0,1,1,0-1.174h48.36a.587.587,0,1,1,0,1.174Z" transform="translate(-316.124 -271.792)" fill="#f2f2f2"/>
  <path id="路径_12" data-name="路径 12" d="M645.6,262.25H631.747a.587.587,0,0,1,0-1.174H645.6a.587.587,0,1,1,0,1.174Z" transform="translate(-476.252 -198.885)" fill="#f2f2f2"/>
  <path id="路径_13" data-name="路径 13" d="M645.6,336.1H631.747a.587.587,0,0,1,0-1.174H645.6a.587.587,0,1,1,0,1.174Z" transform="translate(-476.252 -253.482)" fill="#f2f2f2"/>
  <path id="路径_14" data-name="路径 14" d="M645.6,360.413H631.748a.587.587,0,1,1,0-1.174H645.6a.587.587,0,0,1,0,1.174Z" transform="translate(-476.252 -271.459)" fill="#f2f2f2"/>
  <path id="路径_15" data-name="路径 15" d="M734.755,360.413H720.9a.587.587,0,1,1,0-1.174h13.851a.587.587,0,0,1,0,1.174Z" transform="translate(-542.168 -271.459)" fill="#f2f2f2"/>
  <path id="路径_16" data-name="路径 16" d="M426.759,286.566H412.908a.587.587,0,0,1,0-1.174h13.851a.587.587,0,1,1,0,1.174Z" transform="translate(-314.459 -216.862)" fill="#f2f2f2"/>
  <path id="路径_17" data-name="路径 17" d="M461.944,626.532h-48.36a.587.587,0,1,1,0-1.174h48.36a.587.587,0,1,1,0,1.174Z" transform="translate(-314.959 -468.207)" fill="#f2f2f2"/>
  <path id="路径_18" data-name="路径 18" d="M461.044,676.063h-48.36a.587.587,0,1,1,0-1.174h48.36a.587.587,0,1,1,0,1.174Z" transform="translate(-314.293 -504.827)" fill="#f2f2f2"/>
  <path id="路径_19" data-name="路径 19" d="M461.494,700.829h-48.36a.587.587,0,1,1,0-1.174h48.36a.587.587,0,1,1,0,1.174Z" transform="translate(-314.625 -523.137)" fill="#f2f2f2"/>
  <path id="路径_20" data-name="路径 20" d="M638.619,676.513H624.768a.587.587,0,0,1,0-1.174h13.851a.587.587,0,0,1,0,1.174Z" transform="translate(-471.092 -505.159)" fill="#f2f2f2"/>
  <path id="路径_21" data-name="路径 21" d="M638.619,700.829H624.768a.587.587,0,0,1,0-1.174h13.851a.587.587,0,1,1,0,1.174Z" transform="translate(-471.092 -523.137)" fill="#f2f2f2"/>
  <path id="路径_22" data-name="路径 22" d="M727.775,676.513H713.924a.587.587,0,1,1,0-1.174h13.851a.587.587,0,0,1,0,1.174Z" transform="translate(-537.007 -505.159)" fill="#f2f2f2"/>
  <path id="路径_23" data-name="路径 23" d="M586.457,651.3H510.4a.587.587,0,0,1,0-1.174h76.061a.587.587,0,1,1,0,1.174Z" transform="translate(-386.533 -486.517)" fill="#f2f2f2"/>
  <path id="路径_24" data-name="路径 24" d="M426.984,651.3H413.133a.587.587,0,1,1,0-1.174h13.851a.587.587,0,0,1,0,1.174Z" transform="translate(-314.625 -486.517)" fill="#f2f2f2"/>
  <path id="路径_25" data-name="路径 25" d="M586.457,726.045H510.4a.587.587,0,0,1,0-1.174h76.061a.587.587,0,0,1,0,1.174Z" transform="translate(-386.533 -541.78)" fill="#f2f2f2"/>
  <path id="路径_26" data-name="路径 26" d="M426.984,726.045H413.133a.587.587,0,0,1,0-1.174h13.851a.587.587,0,0,1,0,1.174Z" transform="translate(-314.625 -541.78)" fill="#f2f2f2"/>
  <path id="路径_27" data-name="路径 27" d="M465.795,401.13l-18.781,18.546,18.781,18.546L470.02,434l-14.2-14.2,14.32-14.32Z" transform="translate(-330.488 -296.565)" fill="#4596fd"/>
  <path id="路径_28" data-name="路径 28" d="M613.01,401.13l18.781,18.546L613.01,438.222,608.784,434l14.2-14.2-14.32-14.32Z" transform="translate(-450.002 -296.565)" fill="#4596fd"/>
  <circle id="椭圆_15" data-name="椭圆 15" cx="2.346" cy="2.346" r="2.346" transform="translate(54.011 43.794)" fill="#6c63ff"/>
  <circle id="椭圆_16" data-name="椭圆 16" cx="2.346" cy="2.346" r="2.346" transform="translate(60.267 43.794)" fill="#6c63ff"/>
  <circle id="椭圆_17" data-name="椭圆 17" cx="2.346" cy="2.346" r="2.346" transform="translate(66.523 43.794)" fill="#6c63ff"/>
  <rect id="矩形_74" data-name="矩形 74" width="196.029" height="0.782" transform="translate(51.143 50.05)" opacity="0.1"/>
  <path id="路径_29" data-name="路径 29" d="M1037.893,522.827c0,16.624-9.882,22.428-22.073,22.428s-22.073-5.8-22.073-22.428,22.073-37.771,22.073-37.771S1037.893,506.2,1037.893,522.827Z" transform="translate(-744.321 -364.479)" fill="#f2f2f2"/>
  <path id="路径_30" data-name="路径 30" d="M1013.271,520.212l.227-13.913,9.408-17.212-9.371,15.029.1-6.256,6.483-12.452-6.457,10.8h0l.182-11.251,6.944-9.914-6.916,8.145.115-20.63-.717,27.311.057-1.127-7.059-10.805,6.947,12.968-.66,12.565-.018-.334-8.138-11.371,8.112,12.549-.081,1.571-.016.024.008.129-1.668,31.88h2.229l.266-16.466,8.094-12.519Z" transform="translate(-742.577 -341.979)" fill="#3f3d56"/>
  <path id="路径_31" data-name="路径 31" d="M138.038,769.25a11.239,11.239,0,0,1-2.132.913c-1.324.362-2.739.229-4.076.538a1.676,1.676,0,0,0-1.318.925,1.943,1.943,0,0,0,.144,1.205c1.478,4.332,2.368,8.932,4.725,12.857a19.458,19.458,0,0,0,3.648,4.428,3.478,3.478,0,0,0,1.86,1.031,1.889,1.889,0,0,0,1.921-2.654c-.211-.469-.6-.833-.857-1.281a4.888,4.888,0,0,1-.474-1.822,11.847,11.847,0,0,1,.185-5.543,18.632,18.632,0,0,1,1.879-3.245,5.664,5.664,0,0,0,1.058-3.531,6.132,6.132,0,0,0-.951-2.36c-.438-.736-1.3-2.713-2.185-2.959C140.549,767.5,138.835,768.841,138.038,769.25Z" transform="translate(-106.073 -573.458)" fill="#2f2e41"/>
  <path id="路径_32" data-name="路径 32" d="M246.934,816.384a3.653,3.653,0,0,1-.173,1.237c-.276.728-.96,1.227-1.313,1.92a4.242,4.242,0,0,0,.057,3.163,3.241,3.241,0,0,0,1.02,1.721,3.36,3.36,0,0,0,1.552.5c4.7.651,9.478.277,14.222.414a4.853,4.853,0,0,0,2.535-.367,1.6,1.6,0,0,0,.708-2.181c-.461-.625-1.373-.619-2.148-.656a8.84,8.84,0,0,1-5.452-2.246,3.939,3.939,0,0,1-.765-.88,5.411,5.411,0,0,1-.4-.917,40.876,40.876,0,0,0-2.368-5.245,2.777,2.777,0,0,0-1.018-1.219,2.689,2.689,0,0,0-1.105-.241c-1.183-.077-4.245-.479-5.159.44C246.282,812.674,246.952,815.3,246.934,816.384Z" transform="translate(-190.873 -605.627)" fill="#2f2e41"/>
  <circle id="椭圆_18" data-name="椭圆 18" cx="7.553" cy="7.553" r="7.553" transform="translate(55.784 90.649)" fill="#fbbebe"/>
  <path id="路径_33" data-name="路径 33" d="M247.129,413.21a5.677,5.677,0,0,1-2.32,2.98l10.446,2.131a11.067,11.067,0,0,1-.146-4.658,2.685,2.685,0,0,0,.063-1.149c-.2-.758-1.05-1.123-1.813-1.3a24.231,24.231,0,0,1-5.364-1.51C247.452,410.633,247.528,412.141,247.129,413.21Z" transform="translate(-190.613 -308.771)" fill="#fbbebe"/>
  <path id="路径_34" data-name="路径 34" d="M217.637,421.666a8.169,8.169,0,0,1,7.12.186,16.119,16.119,0,0,1,3.538,2.822c1,.969,2.076,2.078,2.147,3.472a9.724,9.724,0,0,1-.283,2,6.716,6.716,0,0,0,3.592,6.9,9.142,9.142,0,0,1,1.014,4.67c.048,6.109-1.879,12.294-.5,18.246.323,1.4.824,2.751,1.1,4.158.362,1.822.344,3.7.533,5.545a24.834,24.834,0,0,0,1.333,5.864,2.436,2.436,0,0,1-2.253.942,6.364,6.364,0,0,1-2.409-.817c-3.682-1.884-7.054-4.368-10.867-5.969-2.523-1.059-5.21-1.719-7.658-2.943s-4.723-3.165-5.472-5.8a13.569,13.569,0,0,1-.361-3.52c-.074-4.983-.143-10.019.941-14.883.956-4.289,2.8-8.392,3.2-12.768.131-1.424.134-2.949.93-4.138C214.409,423.958,216.838,423.523,217.637,421.666Z" transform="translate(-163.528 -317.076)" fill="#2f2e41"/>
  <path id="路径_35" data-name="路径 35" d="M240.139,366.953a1.952,1.952,0,0,1,2.014-.488c.711.172,1.367.538,2.085.677a1.219,1.219,0,0,0,.976-.137,1.419,1.419,0,0,0,.421-.931,17.765,17.765,0,0,0,.175-4.531,1.342,1.342,0,0,1,.041-.635c.178-.428.72-.53,1.163-.668a3.471,3.471,0,0,0,2.349-3.554,1.413,1.413,0,0,0-.432-.975,1.776,1.776,0,0,0-1.13-.268q-3.046-.024-6.091,0a4.424,4.424,0,0,0-2.192.4,10.661,10.661,0,0,0-1.272,1.072c-1.128.91-2.653,1.1-4.025,1.562a3.99,3.99,0,0,0-1.764,1.052,1.858,1.858,0,0,0-.389,1.927,6.84,6.84,0,0,0,.492.757c.809,1.294.271,2.973.391,4.494.151,1.9,2.963,4.982,4.869,5.432C240.9,372.866,239.12,368.2,240.139,366.953Z" transform="translate(-181.098 -268.645)" fill="#2f2e41"/>
  <path id="路径_36" data-name="路径 36" d="M242.9,681.619a22.543,22.543,0,0,1,.377,4.178c-.093,1.953-.8,3.836-.928,5.787-.1,1.457.128,2.93-.075,4.377-.13.926-.432,1.819-.619,2.735a11.312,11.312,0,0,0,1.818,8.672,1.42,1.42,0,0,0,.527.511,1.488,1.488,0,0,0,.654.086,46.917,46.917,0,0,0,6.561-.6.629.629,0,0,0,.421-.186.59.59,0,0,0,.091-.249c.4-2.069-.515-4.143-.749-6.238a19.359,19.359,0,0,1,.82-6.664,29.6,29.6,0,0,1,.9-3.187c.257-.7.568-1.387.792-2.1a16.018,16.018,0,0,0,.574-3.442q.232-2.757.246-5.526a23.19,23.19,0,0,0-.434-5.216,27.807,27.807,0,0,0-2.486-6.186,3.918,3.918,0,0,0-1.464.7,32.693,32.693,0,0,1-4,2.211c-.93.432-2.743.739-3.333,1.638s-.206,2.7-.162,3.677Q242.546,679.117,242.9,681.619Z" transform="translate(-188.119 -500.01)" fill="#2f2e41"/>
  <path id="路径_37" data-name="路径 37" d="M242.9,681.619a22.543,22.543,0,0,1,.377,4.178c-.093,1.953-.8,3.836-.928,5.787-.1,1.457.128,2.93-.075,4.377-.13.926-.432,1.819-.619,2.735a11.312,11.312,0,0,0,1.818,8.672,1.42,1.42,0,0,0,.527.511,1.488,1.488,0,0,0,.654.086,46.917,46.917,0,0,0,6.561-.6.629.629,0,0,0,.421-.186.59.59,0,0,0,.091-.249c.4-2.069-.515-4.143-.749-6.238a19.359,19.359,0,0,1,.82-6.664,29.6,29.6,0,0,1,.9-3.187c.257-.7.568-1.387.792-2.1a16.018,16.018,0,0,0,.574-3.442q.232-2.757.246-5.526a23.19,23.19,0,0,0-.434-5.216,27.807,27.807,0,0,0-2.486-6.186,3.918,3.918,0,0,0-1.464.7,32.693,32.693,0,0,1-4,2.211c-.93.432-2.743.739-3.333,1.638s-.206,2.7-.162,3.677Q242.546,679.117,242.9,681.619Z" transform="translate(-188.119 -500.01)" opacity="0.1"/>
  <path id="路径_38" data-name="路径 38" d="M179.736,605.518c-1,2.7.471,5.618,1.752,8.2,3.156,6.357,5.347,13.14,7.527,19.894a2.439,2.439,0,0,1,.144,1.557,2.039,2.039,0,0,1-.736.872c-1.5,1.142-3.417,1.548-5.207,2.145a23.508,23.508,0,0,0-4.938,2.315c-1.3.8-2.513,1.732-3.726,2.658l-3.861,2.949a2.583,2.583,0,0,0-.645.625,2.523,2.523,0,0,0-.034,2.015,34.256,34.256,0,0,0,1.89,5.159,1.8,1.8,0,0,0,.686.9c.6.324,1.34-.106,1.8-.612s.858-1.136,1.507-1.354,1.361.046,2.038-.049c1.094-.154,1.821-1.162,2.61-1.936,3.223-3.162,8.6-2.933,12.151-5.729a15.413,15.413,0,0,1,1.624-1.269c.6-.354,1.279-.549,1.9-.862a8.06,8.06,0,0,0,3.718-4.942c.637-2.02.819-4.152,1.277-6.22a27.043,27.043,0,0,0,.653-3.216,17.225,17.225,0,0,0-.066-3.041l-1.279-15.827c-.1-1.289-.208-2.579-.411-3.856-3.8.136-7.6.289-11.4.334C185.687,606.262,182.607,606.474,179.736,605.518Z" transform="translate(-135.171 -453.539)" fill="#2f2e41"/>
  <path id="路径_39" data-name="路径 39" d="M201.465,602.115a2.03,2.03,0,0,0,2.634.357c.864-.454,1.535-1.218,2.4-1.669a7.8,7.8,0,0,1,3.852-.546,25.044,25.044,0,0,1,6.175.69c2.066.589,4.077,1.721,6.213,1.5a1.278,1.278,0,0,0,.98-.46,1.446,1.446,0,0,0,.162-.739l.07-1.866a1.686,1.686,0,0,0-.149-.945,1.587,1.587,0,0,0-.708-.542c-3.04-1.472-6.508-1.746-9.884-1.862q-2.574-.088-5.15-.073a18.769,18.769,0,0,0-4.624.187C201.535,596.667,200.5,600.564,201.465,602.115Z" transform="translate(-158.297 -446.434)" fill="#2f2e41"/>
  <path id="路径_40" data-name="路径 40" d="M219.357,424.466c-3.984-.035-7.594-2.665-11.577-2.729a3,3,0,0,0-1.406.243,5.233,5.233,0,0,0-1.342,1.277c-1.178,1.275-2.883,1.956-4.093,3.2a4.748,4.748,0,0,0-1.318,4.471,3.323,3.323,0,0,0,3.722,2.389,9.593,9.593,0,0,1,3.738-5.078A19,19,0,0,1,210,426.708c1.79-.811,3.792-1.638,5.661-1.03a7.983,7.983,0,0,1,1.931,1.053l3.116,2.093A21.7,21.7,0,0,0,219.357,424.466Z" transform="translate(-157.098 -317.661)" fill="#4596fd"/>
  <path id="路径_41" data-name="路径 41" d="M196.831,441.129c-.529.66.233,1.616.116,2.454-.078.557-.536.982-.726,1.51a8.093,8.093,0,0,0-.168,1.731,7.426,7.426,0,0,1-.332,1.233,22.149,22.149,0,0,0-.7,3.656l-.7,5.207a19.718,19.718,0,0,0-.221,2.366,7.068,7.068,0,0,1-.118,1.769,13.072,13.072,0,0,1-.726,1.61,1.886,1.886,0,0,0-.026,1.7,2.973,2.973,0,0,0-.622,3.711,2.058,2.058,0,0,1,.321.59,1.517,1.517,0,0,1-.141.871l-.705,1.879c-.18.481-.238,1.213.264,1.323a4.432,4.432,0,0,0-.952,1.5,1.79,1.79,0,0,0,.253,1.7,2.16,2.16,0,0,1,.442.536,1.427,1.427,0,0,1-.051.845,3.1,3.1,0,0,0,.384,2.433,2.183,2.183,0,0,0,2.195.941c1.41-.318,2.678-.82,4.1-.559a73.241,73.241,0,0,1,9.1,2.073c3.385,1.081,6.662,2.665,10.2,3a.991.991,0,0,0,.682-.106,1.025,1.025,0,0,0,.315-.648l1.093-5.126a52.746,52.746,0,0,0,1-5.742c.124-1.246.16-2.5.2-3.752l.282-9.966a9.958,9.958,0,0,0-.573-4.332l-1.621-5.174c-.925-2.953-3.047-5.571-3.8-8.572-.478-1.9-.831-3.937-2.114-5.417-1.828-2.11-4.991-2.438-7.759-2.076a9.27,9.27,0,0,0-3.594,1.1,11.775,11.775,0,0,0-3.064,3.085C198.331,439.426,197.583,440.191,196.831,441.129Z" transform="translate(-151.044 -326.855)" fill="#4596fd"/>
  <path id="路径_42" data-name="路径 42" d="M236.614,554.989c.228.983.707,1.89,1,2.856.491,1.619.45,3.362.94,4.98.206.68.5,1.332.652,2.026a8.4,8.4,0,0,1-.783,4.827,18.855,18.855,0,0,0-1.588,4.687,3.59,3.59,0,0,0,.954,3.214,4.7,4.7,0,0,0,3.477.623,3.653,3.653,0,0,0,1.262-.263,3.407,3.407,0,0,0,1.526-2.525,37.463,37.463,0,0,0,.306-10.218l-.549-8.924a20.888,20.888,0,0,0-.748-5.121,4.884,4.884,0,0,0-1.076-2.2,7.246,7.246,0,0,0-2.765-.428C236.068,548.38,236.1,552.781,236.614,554.989Z" transform="translate(-184.363 -411.402)" fill="#fbbebe"/>
  <path id="路径_43" data-name="路径 43" d="M232.847,446.386a2.171,2.171,0,0,0-2.078.184,6.4,6.4,0,0,0-1.557,1.511c-1.392,1.7-2.865,3.648-2.659,5.834a14.8,14.8,0,0,0,.6,2.391c.933,3.488-.1,7.176.02,10.785a33.763,33.763,0,0,0,.974,6.173c.092.416.24.9.642,1.037a1.4,1.4,0,0,0,.927-.144,7.4,7.4,0,0,1,6.768.853c.747-.4.467-1.659.3-2.488-.5-2.465.178-5.009,1-7.386a27.21,27.21,0,0,0,1.937-7.264c.154-2.846-.79-5.623-1.72-8.316a2.674,2.674,0,0,0-2.253-2.23A15.543,15.543,0,0,1,232.847,446.386Z" transform="translate(-177.102 -335.749)" fill="#2f2e41"/>
</svg>
