<svg xmlns="http://www.w3.org/2000/svg" xmlns:xlink="http://www.w3.org/1999/xlink" width="297.596" height="209.08" viewBox="0 0 297.596 209.08">
  <defs>
    <linearGradient id="linear-gradient" x1="31.936" y1="1" x2="31.936" gradientUnits="objectBoundingBox">
      <stop offset="0" stop-color="gray" stop-opacity="0.251"/>
      <stop offset="0.54" stop-color="gray" stop-opacity="0.122"/>
      <stop offset="1" stop-color="gray" stop-opacity="0.102"/>
    </linearGradient>
  </defs>
  <g id="参观" transform="translate(-0.005 0.002)">
    <path id="路径_46" data-name="路径 46" d="M244.345,96.725c-12.769,8.94-29.332,8.363-43.847,3.711S172.651,87.5,158.509,81.615A136.449,136.449,0,0,0,121.617,72c-18.024-2.062-38.151.45-50.708,14.909C56.925,103,58,132.035,73.118,146.82c7.695,7.515,17.77,11.2,26.555,17.071s16.925,15.6,16.176,26.925c-.693,10.492-8.747,18.532-17.082,23.581-6.441,3.9-14.374,8.161-15.149,16.243-.751,7.819,5.92,13.946,12.289,17.43A69.8,69.8,0,0,0,163,247.794c7.383-4.128,14.164-9.605,21.908-12.8,20.334-8.426,42.742.058,64.275,3.159a128.489,128.489,0,0,0,54.667-3.979c10.663-3.15,21.367-7.965,28.858-16.936,5.4-6.469,8.769-14.652,11.927-22.739q5.053-12.93,9.716-26.044c1.864-5.246,3.7-10.6,4.183-16.212.872-10.174-2.805-20.232-7.814-28.819-11.891-20.4-31.919-34.738-53.61-38.38s-44.636,3.471-61.459,19.034" transform="translate(-61.06 -71.37)" fill="#4596fd" opacity="0.1"/>
    <g id="组_13" data-name="组 13" transform="translate(148.223 28.208)" opacity="0.1">
      <path id="路径_47" data-name="路径 47" d="M598.952,173.881,597.9,234.9s38.079,0,70.479,10.519l.63-61.641S617.045,171.355,598.952,173.881Z" transform="translate(-597.9 -173.542)"/>
    </g>
    <path id="路径_48" data-name="路径 48" d="M595.952,169.881,594.9,230.9s38.079,0,70.479,10.519l.629-61.641S614.044,167.355,595.952,169.881Z" transform="translate(-447.505 -142.438)" fill="#f7f7fd"/>
    <g id="组_14" data-name="组 14" transform="translate(60.102 29.959)" opacity="0.1">
      <path id="路径_49" data-name="路径 49" d="M348.787,180.219l1.052,61.017s-38.079,0-70.476,10.519l-.632-61.641S330.694,177.707,348.787,180.219Z" transform="translate(-278.73 -179.884)"/>
    </g>
    <path id="路径_50" data-name="路径 50" d="M351.787,175.219l1.052,61.017s-38.079,0-70.476,10.519l-.632-61.641S333.694,172.707,351.787,175.219Z" transform="translate(-220.8 -146.305)" fill="#f7f7fd"/>
    <g id="组_15" data-name="组 15" transform="translate(76.311 35.852)" opacity="0.2">
      <path id="路径_51" data-name="路径 51" d="M375.011,201.408l.566,32.72s-20.431,0-37.8,5.641l-.34-33.057S365.309,200.06,375.011,201.408Z" transform="translate(-337.44 -201.227)" fill="#4596fd"/>
    </g>
    <g id="组_16" data-name="组 16" transform="translate(241.776 50.991)" opacity="0.1">
      <path id="路径_52" data-name="路径 52" d="M936.74,256.06v60.379s12.424-1.474,38.5,30.716l2.314-60.379S950.415,257.532,936.74,256.06Z" transform="translate(-936.74 -256.06)"/>
    </g>
    <path id="路径_53" data-name="路径 53" d="M934.74,253.06v60.379s12.424-1.474,38.5,30.716l2.314-60.379S948.415,254.532,934.74,253.06Z" transform="translate(-693.516 -202.897)" fill="#f7f7fd"/>
    <g id="组_17" data-name="组 17" transform="translate(0.145 51.267)" opacity="0.1">
      <path id="路径_54" data-name="路径 54" d="M102.383,257.06v60.379S89.969,315.965,63.9,348.155L61.57,287.776S88.707,258.532,102.383,257.06Z" transform="translate(-61.57 -257.06)"/>
    </g>
    <path id="路径_55" data-name="路径 55" d="M105.383,253.06v60.379S92.969,311.965,66.9,344.155L64.57,283.776S91.707,254.532,105.383,253.06Z" transform="translate(-63.597 -202.897)" fill="#f7f7fd"/>
    <g id="组_18" data-name="组 18" transform="translate(158.621 40.135)" opacity="0.2">
      <path id="路径_56" data-name="路径 56" d="M574.5,145.37l25.8,4.614v3.758l-25.8-4.953Z" transform="translate(-574.5 -145.37)" fill="#4596fd"/>
    </g>
    <path id="路径_57" data-name="路径 57" d="M326.873,276.87l-25.793,4.614v3.758l25.793-4.953Z" transform="translate(-217.949 -200.429)" fill="#fff"/>
    <path id="路径_58" data-name="路径 58" d="M575.74,170.74l47.146,9.738v3.758L575.74,174.158Z" transform="translate(-416.776 -123.601)" fill="#fff"/>
    <path id="路径_59" data-name="路径 59" d="M575.74,196.11l47.146,9.735v3.76l-47.146-10.08Z" transform="translate(-416.776 -141.966)" fill="#fff"/>
    <g id="组_19" data-name="组 19" transform="translate(252.218 69.661)" opacity="0.2">
      <path id="路径_60" data-name="路径 60" d="M913.5,252.31v3.316l10.113,8.217.475-2.844Z" transform="translate(-913.5 -252.31)" fill="#4596fd"/>
    </g>
    <path id="路径_61" data-name="路径 61" d="M913.5,368.31v3.316l10.113,8.217.475-2.844Z" transform="translate(-661.282 -266.622)" fill="#fff"/>
    <path id="路径_62" data-name="路径 62" d="M913.66,272.91l-.16,3.319,19.12,18.01-.315-3.791Z" transform="translate(-661.282 -197.562)" fill="#fff"/>
    <path id="路径_63" data-name="路径 63" d="M913.5,295.23v3.159l19.12,18.33V312.61Z" transform="translate(-661.282 -213.719)" fill="#fff"/>
    <g id="组_20" data-name="组 20" transform="translate(11.672 70.378)" opacity="0.2">
      <path id="路径_64" data-name="路径 64" d="M61.22,254.91l.157,3.319L42.26,276.238l.315-3.791Z" transform="translate(-42.26 -254.91)" fill="#4596fd"/>
    </g>
    <g id="组_21" data-name="组 21" transform="translate(11.672 76.541)" opacity="0.2">
      <path id="路径_65" data-name="路径 65" d="M61.377,277.23v3.159L42.26,298.719V294.61Z" transform="translate(-42.26 -277.23)" fill="#4596fd"/>
    </g>
    <ellipse id="椭圆_19" data-name="椭圆 19" cx="15.737" cy="2.833" rx="15.737" ry="2.833" transform="translate(40.759 168.865)" fill="#4596fd" opacity="0.1"/>
    <path id="路径_66" data-name="路径 66" d="M119.535,636.84s1.516,1.982-.7,4.97-4.045,5.522-3.313,7.388c0,0,3.344-5.561,6.074-5.638S122.53,640.2,119.535,636.84Z" transform="translate(-100.361 -480.717)" fill="#4596fd"/>
    <path id="路径_67" data-name="路径 67" d="M119.776,636.84a2.382,2.382,0,0,1,.309.621c2.656,3.12,4.072,6.033,1.519,6.107-2.377.066-5.246,4.321-5.914,5.395.022.08.05.163.08.243,0,0,3.344-5.561,6.074-5.638S122.772,640.2,119.776,636.84Z" transform="translate(-100.603 -480.717)" opacity="0.1"/>
    <path id="路径_68" data-name="路径 68" d="M139.781,644.825c0,.7-.077,1.265-.174,1.265s-.177-.566-.177-1.265.1-.37.2-.37S139.781,644.124,139.781,644.825Z" transform="translate(-117.788 -486.173)" fill="#ffd037"/>
    <path id="路径_69" data-name="路径 69" d="M141.067,647.748c-.613.334-1.149.536-1.2.453s.414-.425,1.027-.759.37-.091.417,0S141.68,647.417,141.067,647.748Z" transform="translate(-118.105 -488.268)" fill="#ffd037"/>
    <path id="路径_70" data-name="路径 70" d="M92.535,636.84s-1.51,1.977.7,4.978,4.045,5.522,3.313,7.388c0,0-3.344-5.561-6.074-5.638S89.542,640.2,92.535,636.84Z" transform="translate(-81.374 -480.717)" fill="#4596fd"/>
    <path id="路径_71" data-name="路径 71" d="M92.524,636.84a2.484,2.484,0,0,0-.309.621c-2.656,3.12-4.072,6.033-1.519,6.107,2.38.066,5.246,4.321,5.914,5.395a2.079,2.079,0,0,1-.08.243s-3.344-5.561-6.074-5.638S89.531,640.2,92.524,636.84Z" transform="translate(-81.363 -480.717)" opacity="0.1"/>
    <path id="路径_72" data-name="路径 72" d="M91.26,644.825c0,.7.077,1.265.174,1.265s.177-.566.177-1.265-.1-.37-.2-.37S91.26,644.124,91.26,644.825Z" transform="translate(-82.918 -486.173)" fill="#ffd037"/>
    <path id="路径_73" data-name="路径 73" d="M86.78,647.748c.613.334,1.146.536,1.193.453s-.414-.425-1.027-.759-.37-.091-.417,0S86.167,647.417,86.78,647.748Z" transform="translate(-79.405 -488.268)" fill="#ffd037"/>
    <path id="路径_74" data-name="路径 74" d="M93,674.683s4.241-.13,5.522-1.041,6.521-2,6.839-.536,6.372,7.259,1.585,7.3-11.124-.746-12.4-1.524S93,674.683,93,674.683Z" transform="translate(-84.177 -506.453)" fill="#a8a8a8"/>
    <path id="路径_75" data-name="路径 75" d="M107.038,685.888c-4.788.039-11.124-.745-12.4-1.524-.972-.591-1.358-2.714-1.488-3.694H93.01s.276,3.421,1.543,4.2,7.612,1.563,12.4,1.524c1.38,0,1.861-.5,1.833-1.231C108.6,685.6,108.068,685.88,107.038,685.888Z" transform="translate(-84.185 -512.446)" opacity="0.2"/>
    <ellipse id="椭圆_20" data-name="椭圆 20" cx="25.953" cy="4.445" rx="25.953" ry="4.445" transform="translate(139.847 125.515)" fill="#6c63ff" opacity="0.1"/>
    <path id="路径_76" data-name="路径 76" d="M627.465,322.683a3.612,3.612,0,0,0-.276.848q-.025.11-.05.232c-.166.845-.276,1.908-.334,2.526-.028.309-.041.508-.041.508s-5.988-.4-4.95-1.405a2.209,2.209,0,0,0,.552-.994c.03-.108.055-.215.077-.326a5.593,5.593,0,0,0,.1-.759v-.193a7.821,7.821,0,0,0-.058-1.24s1.947,0,3.415.157C626.885,322.151,627.655,322.347,627.465,322.683Z" transform="translate(-466.9 -252.716)" fill="#d38884"/>
    <path id="路径_77" data-name="路径 77" d="M600.82,378.8c-2.04-.066-.536-4.315-.3-4.887s-.348-1.971-.348-1.971-.69-4.048-.69-4.313a10.814,10.814,0,0,0-.232-1.64,2.761,2.761,0,0,1,.276-1.607,5.773,5.773,0,0,0,.2-1.839v-1.905l.456-.6,1.162,1.1.323.3.569,2.131-.2,3.054-.108,2.974.7,4.114S602.874,378.873,600.82,378.8Z" transform="translate(-450.637 -280.341)" fill="#d38884"/>
    <path id="路径_78" data-name="路径 78" d="M541.719,290.287l-1.739-.723v-.282l.453-.6,1.165,1.1Z" transform="translate(-390.89 -208.978)" opacity="0.1"/>
    <path id="路径_79" data-name="路径 79" d="M601.979,350.11a8.023,8.023,0,0,0-.483,1.706,7.557,7.557,0,0,1-.456,1.637l1.933.8Z" transform="translate(-451.95 -273.152)" fill="#4c4981"/>
    <path id="路径_80" data-name="路径 80" d="M601.979,350.11a8.023,8.023,0,0,0-.483,1.706,7.557,7.557,0,0,1-.456,1.637l1.933.8Z" transform="translate(-451.95 -273.152)" opacity="0.05"/>
    <path id="路径_81" data-name="路径 81" d="M642.812,466.832l-.16.342s-.174,1.135-.174,1.162-.5.784-.5.784l-1.262.276-.536-.066a7.53,7.53,0,0,0-.144-.928c-.019-.086-.039-.174-.063-.262a7.089,7.089,0,0,0-.881-2,16.484,16.484,0,0,0-1.27-2.609,10.749,10.749,0,0,1-1.472-4.081,21.411,21.411,0,0,0-.052-2.883c-.055-.919-.116-1.692-.116-1.692L639.358,453l.37.583.221.345a1.584,1.584,0,0,1-.014.177v.041a5.891,5.891,0,0,1-.276,1.38s-.237,1.706,0,2.007a35.946,35.946,0,0,1,1.162,6.185v.168a3.734,3.734,0,0,0,1.129,2.176h0c.033.039.069.074.1.11A7.3,7.3,0,0,0,642.812,466.832Z" transform="translate(-477.388 -347.635)" fill="#d38884"/>
    <path id="路径_82" data-name="路径 82" d="M650.132,503.369l.536.066,1.262-.276s.5-.759.5-.784.174-1.162.174-1.162l.16-.342.019-.041a6.708,6.708,0,0,1-.867-.715h0c-.03-.028-.061-.055-.088-.086a1.644,1.644,0,0,1-.781,1.6c-.467.24-.85.425-1.118.552Z" transform="translate(-487.341 -381.678)" opacity="0.1"/>
    <path id="路径_83" data-name="路径 83" d="M653.138,501.588l-.18.384s-.174,1.135-.174,1.162-.5.784-.5.784l-1.262.276-.726-.086a4.8,4.8,0,0,0-.061-.6c-.022-.152-.052-.32-.094-.5.276-.124.7-.329,1.253-.613a1.565,1.565,0,0,0,.781-1.6,7.609,7.609,0,0,0,.66.585C652.967,501.469,653.075,501.544,653.138,501.588Z" transform="translate(-487.493 -382.23)" fill="#ceddf9"/>
    <path id="路径_84" data-name="路径 84" d="M653.385,503.123l-.18.384s-.174,1.135-.174,1.162-.5.784-.5.784l-1.262.276-.726-.086a4.8,4.8,0,0,0-.061-.6,2.513,2.513,0,0,1,.458.063s1.723.367,1.806-1c.05-.773.21-1.077.337-1.2C653.213,503,653.321,503.078,653.385,503.123Z" transform="translate(-487.739 -383.765)" opacity="0.1"/>
    <path id="路径_85" data-name="路径 85" d="M652.222,500.836s-.428-.094-.514,1.267-1.806,1-1.806,1-.845-.21-.853.141a3.28,3.28,0,0,0,.226.944,2.942,2.942,0,0,0,.21,1.005c.16.193.058.911.058.911s.066.536,1.4,0a3.875,3.875,0,0,0,2.173-1.723c.033-.05-.116-.2.745-.511s3.313-2.292,3.136-3.261a.828.828,0,0,0-.585-.7,1.007,1.007,0,0,0-.77.1,6.119,6.119,0,0,1-.721.331,3.535,3.535,0,0,1-1.027.246,3.952,3.952,0,0,0-.8.152A1.656,1.656,0,0,1,652.222,500.836Z" transform="translate(-486.704 -381.569)" fill="#cc8294"/>
    <path id="路径_86" data-name="路径 86" d="M601.809,465.892a2.343,2.343,0,0,0-.486.552c-.486.743-.779,1.781-1.1,2.228a4.406,4.406,0,0,0-.552,1.706,36.751,36.751,0,0,1-2.107,5.395,17.611,17.611,0,0,0-1.016,2.609,2.059,2.059,0,0,0-.3,1.447.289.289,0,0,0,.017.13.05.05,0,0,1,0,.052v.019l-.58.986-1.844-.257-.953-.646a3.244,3.244,0,0,0,.207-.395,17.452,17.452,0,0,0,.872-3.17,21.715,21.715,0,0,0,.475-2.86,21.693,21.693,0,0,1,.152-2.209,53.879,53.879,0,0,1,1.916-5.149,2.065,2.065,0,0,0,.348-.953.8.8,0,0,0,0-.207l.624-.621S602.61,465.254,601.809,465.892Z" transform="translate(-446.043 -355.996)" fill="#d38884"/>
    <path id="路径_87" data-name="路径 87" d="M596.327,519.53v.218l-.58.986-1.844-.257-.953-.646a3.252,3.252,0,0,0,.207-.395,3.759,3.759,0,0,1,1.524.243s1.146.218,1.629-.133A.029.029,0,0,1,596.327,519.53Z" transform="translate(-446.093 -395.707)" opacity="0.1"/>
    <path id="路径_88" data-name="路径 88" d="M594.139,522.7l-1.872.447-1.717-1.27.088-.715a1.236,1.236,0,0,0,.315-.276,1.132,1.132,0,0,0,.249-.514c.1-.527,1.731.05,1.731.05s1.193.226,1.656-.152a2.911,2.911,0,0,0,.088,1.033.77.77,0,0,0,.276.411C595.431,522.038,594.139,522.7,594.139,522.7Z" transform="translate(-444.356 -396.242)" fill="#ceddf9"/>
    <path id="路径_89" data-name="路径 89" d="M594.139,524.624l-1.872.447-1.717-1.27.088-.715a1.235,1.235,0,0,0,.315-.276h.376c.276.028.966,1.256.966,1.256,1.7.113,2.209-.442,2.383-.85a.769.769,0,0,0,.276.411C595.431,523.967,594.139,524.624,594.139,524.624Z" transform="translate(-444.356 -398.17)" opacity="0.1"/>
    <path id="路径_90" data-name="路径 90" d="M587.952,524.773s-.679-1.229-.966-1.253a6.513,6.513,0,0,0-.729,0,9.208,9.208,0,0,1-1.027,1.933c-.276.152-.679,1.005-.679,1.005s1.988,1.933,3.909,1.554a3.984,3.984,0,0,1,1.762.439c.889.464,4.6.113,5.055-.7.337-.613.472-1.057.174-1.38a.806.806,0,0,0-.7-.237,2.629,2.629,0,0,1-2.435-1.077,22.078,22.078,0,0,0-1.833-1.554C590.345,523.5,590.6,524.95,587.952,524.773Z" transform="translate(-440.012 -398.67)" fill="#cc8294"/>
    <path id="路径_91" data-name="路径 91" d="M639.952,454.129l-.014.017a6.32,6.32,0,0,1-1.182,1.088,11.813,11.813,0,0,0-1.2.533s-.5.671-.9.7a1.578,1.578,0,0,0-.353.094c-.055-.919-.116-1.693-.116-1.693L639.358,453l.37.583c.083.235.177.453.207.522Z" transform="translate(-477.388 -347.635)" opacity="0.1"/>
    <path id="路径_92" data-name="路径 92" d="M606.559,408.635a3.427,3.427,0,0,0,0,3.752A12.5,12.5,0,0,0,609.1,415.6l4.213,8.73a6.888,6.888,0,0,1,1.508-.635c.4-.033.9-.7.9-.7a11.674,11.674,0,0,1,1.2-.536c.276-.066,1.2-1.1,1.2-1.1s-.461-1-.359-1.27-.3-.939-.3-.939a5.521,5.521,0,0,1-.276-1.035,2.718,2.718,0,0,0-.436-.9,2.859,2.859,0,0,1-.433-1.038,9.886,9.886,0,0,0-.649-1.817L615.5,408Z" transform="translate(-455.547 -315.059)" fill="#ceddf9"/>
    <path id="路径_93" data-name="路径 93" d="M618.067,421.352a6.679,6.679,0,0,1-1.2,1.1,11.69,11.69,0,0,0-1.2.536s-.5.668-.9.7a3.2,3.2,0,0,0-.828.3c-.359.163-.682.34-.682.34l-4.216-8.73a9.136,9.136,0,0,1-1.024-1.049,14.492,14.492,0,0,1-1.518-2.162,3.62,3.62,0,0,1-.48-2.6,3,3,0,0,1,.48-1.146l3-.213,5.972-.425.05,1.88.11,4.47s.1.224.218.519a5.677,5.677,0,0,1,.417,1.287,2.836,2.836,0,0,0,.433,1.038,2.806,2.806,0,0,1,.436.9,5.6,5.6,0,0,0,.276,1.038s.4.668.3.933S618.067,421.352,618.067,421.352Z" transform="translate(-455.503 -315.059)" opacity="0.05"/>
    <path id="路径_94" data-name="路径 94" d="M612.19,465.848a2.342,2.342,0,0,0-.486.552,10.3,10.3,0,0,1-4.484-1.082.806.806,0,0,0,0-.207l.624-.621S612.99,465.211,612.19,465.848Z" transform="translate(-456.423 -355.952)" opacity="0.1"/>
    <path id="路径_95" data-name="路径 95" d="M617.209,408.971s-.276.936-.367,1.336-.3,2.377-.3,2.377l-.116.552-1.911,9.111-.417,1.98c-.734.4-2.573-.671-2.573-.671a10.211,10.211,0,0,1-4.785-1.135,6.92,6.92,0,0,0,.334-2.107,1.616,1.616,0,0,1,.6-1.273,15.909,15.909,0,0,1,.434-3.413s.135-1.035.638-1.3-.066-.668-.2-.906a1.025,1.025,0,0,1,.047-.613,4.539,4.539,0,0,1,.155-.456,6.336,6.336,0,0,1-1.474-4.376,7.09,7.09,0,0,1,.036-.809l2.761-.483,6.033-1.055.616,1.894h0l.155.475Z" transform="translate(-456.076 -313.416)" fill="#ceddf9"/>
    <path id="路径_96" data-name="路径 96" d="M629.533,322.676a3.62,3.62,0,0,0-.276.848q-.025.11-.05.232a2.536,2.536,0,0,1-1.687.381c-.257,0-.4-.491-.643-.552,0,0-.365-1.314-.467-.207-.7-.144-1.306.4-1.8-.075h0v-.193a7.836,7.836,0,0,0-.058-1.24s1.947,0,3.415.157C628.954,322.143,629.724,322.339,629.533,322.676Z" transform="translate(-468.969 -252.709)" opacity="0.1"/>
    <path id="路径_97" data-name="路径 97" d="M628.065,306.862a3.733,3.733,0,0,1-4.476,3.653h0a3.727,3.727,0,1,1,4-5.483A3.661,3.661,0,0,1,628.065,306.862Z" transform="translate(-466.12 -239.148)" fill="#d38884"/>
    <path id="路径_98" data-name="路径 98" d="M626.8,332.891c-.028.309-.041.508-.041.508s-5.988-.4-4.95-1.405a2.209,2.209,0,0,0,.552-.994l2.6.425s.734.569,1.3,1.1a2.36,2.36,0,0,0,.538.362Z" transform="translate(-466.9 -259.318)" opacity="0.1"/>
    <path id="路径_99" data-name="路径 99" d="M616.492,408.253a1.932,1.932,0,0,1-.787-.058,1.591,1.591,0,0,1-.318-.141c-.5-.3-2.173.069-2.173.069s-4.55.3-4.752,0c-.113-.174-.917-.149-1.574-.1-.276.022-.511.05-.679.066a3,3,0,0,1,.48-1.146l3-.213,6.033-1.055.616,1.894h0A6.84,6.84,0,0,0,616.492,408.253Z" transform="translate(-455.692 -313.38)" opacity="0.1"/>
    <path id="路径_100" data-name="路径 100" d="M611.2,331.866l-3.263-.536a.972.972,0,0,1-.616.536,8.01,8.01,0,0,0-3.244,2.308l-.87,1.207s-.7.87-.469,1.571a26.532,26.532,0,0,1,.5,3.078l.334,2.642a7.561,7.561,0,0,1,.436,2.744,28.4,28.4,0,0,0,.1,4.349l-.668,4.348s2.272-.3,2.485,0,4.752,0,4.752,0,1.657-.37,2.173-.069a1.817,1.817,0,0,0,1.1.2,4.991,4.991,0,0,1-.168-2.14,8.579,8.579,0,0,0,.168-2.176,9.96,9.96,0,0,0,.166-2.408c-.168-.367.37-1.706.37-1.706l1.773-9.332s-.215-1.673-1.162-2.242-2.016-.737-2.584-1.27S611.2,331.866,611.2,331.866Z" transform="translate(-453.142 -259.557)" fill="#4c4981"/>
    <path id="路径_101" data-name="路径 101" d="M639,364.607v1.1l1.03,2.778.373,2.576a12.712,12.712,0,0,1,.671,2.485,20.864,20.864,0,0,0,1.637,3.713s.447,1.038.224,1.237-2.162,4.616.276,4.484,1.673-4.749,1.673-4.749l-.334-2.007s-.469-5.019-.469-5.387c0,0-.6-2.14-.668-2.609s-.5-2.844-.5-2.844l-.367-1.538Z" transform="translate(-479.429 -283.099)" fill="#d38884"/>
    <path id="路径_102" data-name="路径 102" d="M561.2,307.82l-3.636,2.082-1.129,1.706,1.5-1.53Z" transform="translate(-402.798 -222.833)" opacity="0.1"/>
    <path id="路径_103" data-name="路径 103" d="M617.6,393.63a7.258,7.258,0,0,1-2.435,1.08c-.779,0-2.584,1.855-2.584,1.855a23.182,23.182,0,0,1,2.761-1.6A15.531,15.531,0,0,0,617.6,393.63Z" transform="translate(-460.303 -304.657)" opacity="0.1"/>
    <path id="路径_104" data-name="路径 104" d="M612.2,395.72s-1.554,1.405-1.154,1.557,2.485-1.557,2.485-1.557Z" transform="translate(-459.146 -306.169)" opacity="0.1"/>
    <path id="路径_105" data-name="路径 105" d="M637.851,377.55s-1.2,1.632-.878,1.607,1.253-.955,1.253-.955Z" transform="translate(-477.921 -293.016)" opacity="0.1"/>
    <path id="路径_106" data-name="路径 106" d="M637.64,383.37s-1.3,1.48-1.253,1.855S637.64,383.37,637.64,383.37Z" transform="translate(-477.536 -297.229)" opacity="0.1"/>
    <path id="路径_107" data-name="路径 107" d="M640.558,386.05s-.878,1.568-.5,1.894S640.558,386.05,640.558,386.05Z" transform="translate(-480.125 -299.169)" opacity="0.1"/>
    <path id="路径_108" data-name="路径 108" d="M637.079,371.46s-.654,1.1-.177,1.179.525,0,.525,0Z" transform="translate(-477.784 -288.608)" opacity="0.1"/>
    <path id="路径_109" data-name="路径 109" d="M636.228,356.83a11.538,11.538,0,0,1-.668,1.969,9.124,9.124,0,0,1-.26-.986A6.726,6.726,0,0,1,636.228,356.83Z" transform="translate(-476.751 -278.017)" opacity="0.1"/>
    <path id="路径_110" data-name="路径 110" d="M627.594,305.044a1.621,1.621,0,0,1-.251.389,2.88,2.88,0,0,0-.453.519,2.786,2.786,0,0,0-.163.886c-.05.3-.237.63-.552.638a1.121,1.121,0,0,1-.442-.133.45.45,0,0,0-.439.014.491.491,0,0,0-.141.331,4.377,4.377,0,0,0-.044.784,1.981,1.981,0,0,0,.016.312,1.752,1.752,0,0,1-.058.994,1.2,1.2,0,0,1-.618.5,3.828,3.828,0,0,1-.867.243h0a9.533,9.533,0,0,1-1.709.055.423.423,0,0,1-.155-.025.219.219,0,0,1-.066-.041,5.224,5.224,0,0,0,.1-.953,3.727,3.727,0,1,1,5.84-4.511Z" transform="translate(-466.126 -239.16)" opacity="0.1"/>
    <path id="路径_111" data-name="路径 111" d="M621.822,298.558a3.241,3.241,0,0,0-1,.221,10.213,10.213,0,0,1-2.115-.16,3.926,3.926,0,0,0-1.739.519,4.2,4.2,0,0,0-1.16.812,1.892,1.892,0,0,0-.552,1.276,2.091,2.091,0,0,1-.025.828,2.332,2.332,0,0,1-.254.387,1.148,1.148,0,0,0-.119.958,3.179,3.179,0,0,0,.571.856c.458.588.746,1.292,1.157,1.916a5.961,5.961,0,0,0,.6.765.425.425,0,0,0,.13.1.4.4,0,0,0,.152.022,6.1,6.1,0,0,0,2.579-.3,1.178,1.178,0,0,0,.618-.5,1.753,1.753,0,0,0,.061-.994,4.552,4.552,0,0,1,.025-1.1.486.486,0,0,1,.141-.329.442.442,0,0,1,.442-.014,1.205,1.205,0,0,0,.439.133c.3,0,.491-.342.552-.641a1.5,1.5,0,0,1,.616-1.405,2.108,2.108,0,0,0-1.118-3.352Z" transform="translate(-461.911 -235.83)" fill="#1e1637"/>
    <path id="路径_112" data-name="路径 112" d="M639.4,346.206a4.35,4.35,0,0,0,0,1.38c-.033.37,0,2.41,0,2.41-1.1-.337-3.912.334-3.912.334l-.334-1a2.486,2.486,0,0,1-.42-.828,9.2,9.2,0,0,1-.259-.988,20.5,20.5,0,0,1-.329-2.1c-.141-1.063,1.441-2.209,2.64-2.844s2.247,2.073,2.247,2.073A3.341,3.341,0,0,1,639.4,346.206Z" transform="translate(-475.909 -267.622)" opacity="0.1"/>
    <path id="路径_113" data-name="路径 113" d="M639.4,345.507a4.36,4.36,0,0,0,0,1.38c-.033.367,0,2.408,0,2.408-1.1-.334-3.912.334-3.912.334l-.334-1a2.456,2.456,0,0,1-.42-.828,9.121,9.121,0,0,1-.259-.986,20.642,20.642,0,0,1-.329-2.1c-.141-1.066,1.441-2.209,2.64-2.847s2.247,2.074,2.247,2.074A3.315,3.315,0,0,1,639.4,345.507Z" transform="translate(-475.909 -267.114)" fill="#4c4981"/>
    <path id="路径_114" data-name="路径 114" d="M623.308,302.468a2.212,2.212,0,0,0-.246-.538c.016.047.033.091.047.138a2.126,2.126,0,0,1-.378,1.886,1.5,1.5,0,0,0-.616,1.405c-.047.3-.237.627-.552.638a1.122,1.122,0,0,1-.442-.132.45.45,0,0,0-.439.014.491.491,0,0,0-.141.331,4.528,4.528,0,0,0-.025,1.1,1.786,1.786,0,0,1-.061,1,1.228,1.228,0,0,1-.618.5,6.1,6.1,0,0,1-2.579.3.4.4,0,0,1-.152-.025.356.356,0,0,1-.13-.1,5.36,5.36,0,0,1-.6-.765c-.411-.624-.7-1.325-1.157-1.916a5.613,5.613,0,0,1-.378-.486v.033a3.053,3.053,0,0,0,.572.856c.456.588.745,1.292,1.154,1.916a5.748,5.748,0,0,0,.6.765.412.412,0,0,0,.127.1.407.407,0,0,0,.152.022,6.092,6.092,0,0,0,2.579-.3,1.179,1.179,0,0,0,.619-.5,1.754,1.754,0,0,0,.061-.994,4.854,4.854,0,0,1,.025-1.1.511.511,0,0,1,.141-.329.442.442,0,0,1,.442-.014,1.2,1.2,0,0,0,.439.133c.3,0,.491-.342.552-.641a2.709,2.709,0,0,1,.163-.886,2.777,2.777,0,0,1,.453-.519A2.132,2.132,0,0,0,623.308,302.468Z" transform="translate(-461.94 -238.275)" opacity="0.2"/>
    <path id="路径_115" data-name="路径 115" d="M720.371,299.218l-2.385,5.069a4.342,4.342,0,0,1-.577,1.129,26.267,26.267,0,0,0-1.229,3.186l-2.559,3.943h0l-.174.276-1-.276-.7-2.628.041-.762v-.1a15.423,15.423,0,0,1,1.933-1.781s.276.033.8-1.251,1.005-1.56,1.005-1.56l.276-.928,2.963-4.719s2.485-3.559,3.161-1.98S720.371,299.218,720.371,299.218Z" transform="translate(-532.086 -234.298)" fill="#ffd2c6"/>
    <path id="路径_116" data-name="路径 116" d="M689.305,433.093a.572.572,0,0,1-.08.243c-.276.4-1.831,8.606-1.831,8.606a4.656,4.656,0,0,1-.453,2.159,31.677,31.677,0,0,0-.729,3.109,53.5,53.5,0,0,1-.447,6.5,6.841,6.841,0,0,0,.1,2.761,4.225,4.225,0,0,0,.8,2.245l.061.088c.1.144.166.226.166.226a1.336,1.336,0,0,0,.351.434l.072.055a4.053,4.053,0,0,0,1.405.594h.05c.2.044.331.063.331.063l.124.679-1.328.276-2.535.174s-2.987.229-2.308-1.1a2.132,2.132,0,0,0,.121-.276h0a2.079,2.079,0,0,0,.069-.2,6.873,6.873,0,0,0,.132-2.833l-.577-4.539c-.953-4.216.748-8.907.748-8.907a2.2,2.2,0,0,1,.18-1.328,8.985,8.985,0,0,0,0-3.037s-.174-2.684-.4-4.012a8.14,8.14,0,0,1-.091-1.693,8.42,8.42,0,0,1,.091-.988l5.718-.759A4.3,4.3,0,0,1,689.305,433.093Z" transform="translate(-510.926 -332.165)" fill="#ffd2c6"/>
    <path id="路径_117" data-name="路径 117" d="M690.387,531.586l-1.328.276-2.535.174s-2.987.229-2.308-1.1a2.116,2.116,0,0,0,.121-.276h0a2.1,2.1,0,0,0,.069-.2,4.694,4.694,0,0,1,1.513.3,1.389,1.389,0,0,0,1.491-.527l.414-.79.061-.113c.1.144.166.226.166.226a1.381,1.381,0,0,0,.422.489l-.072.146-.4.845s.514.052,1.215.166a.552.552,0,0,0,.663-.362h.05c.2.044.331.064.331.064Z" transform="translate(-512.089 -402.89)" opacity="0.1"/>
    <path id="路径_118" data-name="路径 118" d="M691.046,532.724c-.1.453-2.9.591-2.9.591s-1.557-.149-1.994.213-1.72.276-1.77.276-.726-.025-.991-1.24.345-1.38.373-1.4h0a4.581,4.581,0,0,1,1.582.307,1.389,1.389,0,0,0,1.491-.527l.475-.9c.1.143.166.226.166.226a1.379,1.379,0,0,0,.422.489l-.472.991s.513.052,1.215.163a.582.582,0,0,0,.712-.552.633.633,0,0,0,0-.075s.436.127.977.276A1.008,1.008,0,0,1,691.046,532.724Z" transform="translate(-511.519 -403.404)" fill="#626696"/>
    <path id="路径_119" data-name="路径 119" d="M713.951,437.331c-.066.4-.135,1.438-.135,1.438a8.243,8.243,0,0,1-.367,2.935l-.3,1.179a23.939,23.939,0,0,1-.828,5.185s-.643,3.413-.977,4.884a4.039,4.039,0,0,0,.174,2.46l.025.061a.452.452,0,0,0,.019.083.845.845,0,0,0,.039.119,1.764,1.764,0,0,0,.329.552,1.611,1.611,0,0,0,.18.185h0a3.645,3.645,0,0,0,1.066.657h0l.168.066a5.213,5.213,0,0,0,.533.166h.061l-.135.79-1.773-.456-2.374-.77-1.151-.646a.736.736,0,0,1,.036-.185.064.064,0,0,0,0-.022,1.193,1.193,0,0,1,.036-.185,25.269,25.269,0,0,0,.409-6.074c-.276-2.642.828-6.289,1.085-7.156a4.324,4.324,0,0,0,.2-1.541,10.45,10.45,0,0,1-.536-3.178s-.8-1.64-1.466-3.379a8.63,8.63,0,0,1-.478-1.759,5.964,5.964,0,0,1-.1-1.284s5.387-4.917,5.977-.157c.019.163.039.315.058.467C714.251,436.141,714.014,436.942,713.951,437.331Z" transform="translate(-529.153 -330.422)" fill="#ffd2c6"/>
    <path id="路径_120" data-name="路径 120" d="M716.08,526.135l-.135.79-1.772-.456-2.374-.77-1.168-.668a.734.734,0,0,1,.036-.185.064.064,0,0,0,0-.022,1.185,1.185,0,0,1,.036-.185h.166a2.179,2.179,0,0,1,.994.135,2.389,2.389,0,0,0,1,.24,1.26,1.26,0,0,1,.569-.1l.246-.552.039-.083a1.733,1.733,0,0,0,.329.552,2.139,2.139,0,0,0,.19.2v.19l-.014.276a3.456,3.456,0,0,0,.853.392.49.49,0,0,0,.237,0h0l.168.066a5.2,5.2,0,0,0,.533.166h0Z" transform="translate(-531.282 -399.235)" opacity="0.1"/>
    <path id="路径_121" data-name="路径 121" d="M714.688,528.4c-.494-.141-1.687-.37-1.88-.193a6.428,6.428,0,0,1-1.847,0,1,1,0,0,1-.853-.5,5.1,5.1,0,0,1-.066-2.267h.122l.2-.022h0a2.208,2.208,0,0,1,.994.133,2.362,2.362,0,0,0,1,.243,1.235,1.235,0,0,1,.569-.1l.276-.621a1.764,1.764,0,0,0,.329.552,1.791,1.791,0,0,0,.19.193l-.025.461a3.528,3.528,0,0,0,.853.395.345.345,0,0,0,.409-.13.325.325,0,0,0,.03-.069h0a3.054,3.054,0,0,0,.7.232h0a1.281,1.281,0,0,1,1.38.983C717.333,528.458,715.182,528.541,714.688,528.4Z" transform="translate(-530.779 -399.806)" fill="#626696"/>
    <path id="路径_122" data-name="路径 122" d="M691.216,433.093l-.306.094a4.286,4.286,0,0,1-.737.155,30.72,30.72,0,0,1-5.022.036,8.4,8.4,0,0,1,.091-.988l5.718-.759A4.322,4.322,0,0,1,691.216,433.093Z" transform="translate(-512.837 -332.165)" opacity="0.1"/>
    <path id="路径_123" data-name="路径 123" d="M694.894,411.254s-2.1.326-3.807.7c-.569.124-1.1.257-1.488.381a4.532,4.532,0,0,1-.737.157,32.088,32.088,0,0,1-5.282.019c-.928-3.009,1.127-6.8,1.127-6.8a3.852,3.852,0,0,1,.428-1.226v-.03l.293-1.074h7.8l.1.461.2.939,1.226,5.817Z" transform="translate(-511.526 -311.715)" fill="#626696"/>
    <path id="路径_124" data-name="路径 124" d="M713.759,431.852l-.047.019-.914.406a18.333,18.333,0,0,1-4.97.552,5.957,5.957,0,0,1-.1-1.284s5.387-4.917,5.977-.157C713.72,431.548,713.739,431.711,713.759,431.852Z" transform="translate(-529.182 -330.487)" opacity="0.1"/>
    <path id="路径_125" data-name="路径 125" d="M701.128,412.613l-.191.086-.914.406c-1,.464-4.059.552-5.036.552h-.257a1.163,1.163,0,0,1-.9-.552c0-.061-.047-.359-.086-.613-.036-.2-.063-.381-.063-.381a24.153,24.153,0,0,1-3.037-1.571c-.765-.522-.572-4.23-.425-6.093.052-.643.1-1.066.1-1.066l7.9.461,1.1.063.632.141.168.036a26.334,26.334,0,0,0,.679,3.589c.224.276.077,1.2.05,1.734a3.155,3.155,0,0,1-.075.676,4.178,4.178,0,0,1,.251,1.447A2.889,2.889,0,0,0,701.128,412.613Z" transform="translate(-516.407 -311.715)" fill="#626696"/>
    <circle id="椭圆_21" data-name="椭圆 21" cx="3.236" cy="3.236" r="3.236" transform="translate(173.031 66.93)" fill="#ffd2c6"/>
    <path id="路径_126" data-name="路径 126" d="M686.772,330.367s.224,3.065-.4,3.769a28.535,28.535,0,0,1-2.258,2.032l.5,2.082,2.836.326,3.313-3.537-.754-.914s-.577-1.958-.1-2.935S686.772,330.367,686.772,330.367Z" transform="translate(-512.084 -258.853)" fill="#ffd2c6"/>
    <path id="路径_127" data-name="路径 127" d="M713.62,345.109h0l-.174.276-1-.276-.7-2.628.042-.762.207-.3s1.1.025,1.057,1.03A8.8,8.8,0,0,0,713.62,345.109Z" transform="translate(-532.086 -266.862)" opacity="0.1"/>
    <path id="路径_128" data-name="路径 128" d="M699.955,404.463s-.8.177-1.712.3a4.944,4.944,0,0,1-2.4-.072c-.726-.431-4.661-.306-5.8-.262h-.193l.293-1.074h7.8l.1.461,1.1.063.632.141C699.892,404.286,699.955,404.463,699.955,404.463Z" transform="translate(-516.24 -311.693)" opacity="0.1"/>
    <path id="路径_129" data-name="路径 129" d="M685.634,342.13s1.1.025,1.055,1.03a9.256,9.256,0,0,0,.6,2.733l-.251.577s-.351,1.405-.075,1.756,1.278.351.7,3.236a10.321,10.321,0,0,0,.177,2.86c.3.7.3,2.383.751,3.087a16.654,16.654,0,0,1,1.055,2.333s-3.261.726-4.114.226-6.1-.251-6.1-.251.025-.878,0-.98a.812.812,0,0,1,.124-.638c.177-.24.453-.641.3-.991s.375-.87.1-1.414-.61-.652-.552-.95a1.278,1.278,0,0,0-.309-.95c-.2-.251-1.554-2.9-1.554-2.9l-.226-1.237s-1.745-1.278-1.712-1.88a3.562,3.562,0,0,1,.66-1.438l1.679-1.657s.93,1,1.833.652a16.356,16.356,0,0,0,2.844-2.032s.693-.375.743-.652.478-.025.478-.025.627-.345.751-.224a2.209,2.209,0,0,0,.679.224Z" transform="translate(-505.93 -267.376)" fill="#ffcde5"/>
    <path id="路径_130" data-name="路径 130" d="M656.43,361.06l-.533.42a7.054,7.054,0,0,0-.671,2.733,36.082,36.082,0,0,1-.676,4.235l-1.055,1.886a48.075,48.075,0,0,0-1.958,4.6,12.069,12.069,0,0,1-1.253,2.6s-3.487,3.134-1.055,3.7,2.51-2.485,2.51-2.485a3.589,3.589,0,0,0,.66-1.055c.108-.428,3.178-5.884,3.178-5.884s1.08-1.469.853-2.247a23.572,23.572,0,0,0,1.405-4.141,14.574,14.574,0,0,0-.226-2.065l.226-1.731Z" transform="translate(-486.21 -281.079)" fill="#ffd2c6"/>
    <path id="路径_131" data-name="路径 131" d="M695.889,386.11a25.039,25.039,0,0,1-2.935,1.356c-.478.069,2.082-.276,2.082-.276Z" transform="translate(-518.444 -299.213)" opacity="0.1"/>
    <path id="路径_132" data-name="路径 132" d="M698.694,389.74s-3.261,1.1-4.694.906C694,390.64,697.567,391.322,698.694,389.74Z" transform="translate(-519.244 -301.841)" opacity="0.1"/>
    <path id="路径_133" data-name="路径 133" d="M699.506,391.05s-2.938,1.847-4.666,1.546c0,0,4.039.8,4.666.375l-1.806-.5S699.7,391.409,699.506,391.05Z" transform="translate(-519.852 -302.789)" opacity="0.1"/>
    <path id="路径_134" data-name="路径 134" d="M675.606,304.648a3.054,3.054,0,0,0-2.485.467c-.5.395-.828,1-1.4,1.295a7.521,7.521,0,0,1-.917.323,2.648,2.648,0,0,0-1.615,2.849c.088.5.32.955.436,1.447a5.688,5.688,0,0,1-.2,2.664,28.078,28.078,0,0,1-2.789,6.916.734.734,0,0,0-.138.464.682.682,0,0,0,.171.3,6.542,6.542,0,0,0,4.818,1.861,3.722,3.722,0,0,0,1.911-.318,2.893,2.893,0,0,0,.93-.853,4.533,4.533,0,0,0,.867-2.916,8.183,8.183,0,0,1-.116-2.507.639.639,0,0,1,.149-.306c.19-.2.508-.144.779-.177a1.718,1.718,0,0,0,1.3-1.6,17.338,17.338,0,0,0-.1-2.209,4.655,4.655,0,0,1,.875-2.731,3.01,3.01,0,0,0,.641-1.091,1.8,1.8,0,0,0-.467-1.336,6.566,6.566,0,0,0-1.24-1.908,3.343,3.343,0,0,0-1.408-.632Z" transform="translate(-499.334 -240.178)" opacity="0.1"/>
    <path id="路径_135" data-name="路径 135" d="M674.919,303.923a3.037,3.037,0,0,0-2.468.467c-.5.4-.828,1-1.405,1.3a8.009,8.009,0,0,1-.917.32,2.648,2.648,0,0,0-1.615,2.844c.088.5.32.955.436,1.447a5.653,5.653,0,0,1-.2,2.664,28.032,28.032,0,0,1-2.786,6.9.707.707,0,0,0-.138.464.638.638,0,0,0,.168.3,6.531,6.531,0,0,0,4.818,1.861,3.741,3.741,0,0,0,1.911-.315,2.931,2.931,0,0,0,.93-.856,4.535,4.535,0,0,0,.864-2.916,8.079,8.079,0,0,1-.119-2.507.693.693,0,0,1,.149-.306c.193-.2.508-.144.781-.174a1.721,1.721,0,0,0,1.3-1.6,17.892,17.892,0,0,0-.1-2.209,4.627,4.627,0,0,1,.875-2.728,3.038,3.038,0,0,0,.641-1.1,1.817,1.817,0,0,0-.469-1.336,6.6,6.6,0,0,0-1.24-1.908,3.344,3.344,0,0,0-1.416-.6Z" transform="translate(-498.848 -239.654)" fill="#985c7e"/>
    <path id="路径_136" data-name="路径 136" d="M694.84,417.76s.643,3.012,1.715,3.829Z" transform="translate(-519.852 -322.124)" opacity="0.1"/>
    <g id="组_22" data-name="组 22" transform="translate(166.973 67.264)" opacity="0.1">
      <path id="路径_137" data-name="路径 137" d="M675.953,323.541c-.033-.116-.072-.235-.113-.351C675.884,323.309,675.912,323.414,675.953,323.541Z" transform="translate(-673.071 -320.929)"/>
      <path id="路径_138" data-name="路径 138" d="M677.845,315a1.094,1.094,0,0,1,0,.276,2.934,2.934,0,0,1-.641,1.091,4.664,4.664,0,0,0-.875,2.731,18.642,18.642,0,0,1,.1,2.209,1.711,1.711,0,0,1-1.3,1.6c-.276.033-.588-.019-.779.177a.7.7,0,0,0-.152.306,8.2,8.2,0,0,0,.119,2.507,4.536,4.536,0,0,1-.878,2.913,2.864,2.864,0,0,1-.93.853,3.708,3.708,0,0,1-1.908.318,6.626,6.626,0,0,1-4.76-1.8.459.459,0,0,0-.028.243.638.638,0,0,0,.169.3,6.531,6.531,0,0,0,4.818,1.861,3.741,3.741,0,0,0,1.911-.315,2.931,2.931,0,0,0,.93-.856,4.536,4.536,0,0,0,.864-2.916,8.079,8.079,0,0,1-.119-2.507.692.692,0,0,1,.149-.306c.193-.2.508-.144.781-.174a1.721,1.721,0,0,0,1.3-1.6,17.881,17.881,0,0,0-.1-2.209,4.627,4.627,0,0,1,.875-2.728,3.038,3.038,0,0,0,.641-1.1A1.239,1.239,0,0,0,677.845,315Z" transform="translate(-665.81 -315)"/>
    </g>
    <ellipse id="椭圆_22" data-name="椭圆 22" cx="5.842" cy="0.591" rx="5.842" ry="0.591" transform="translate(29.828 137.484)" fill="#6c63ff" opacity="0.1"/>
    <path id="路径_139" data-name="路径 139" d="M185.022,536.09s-7.62,3.937-3.683,8.559a1.464,1.464,0,0,0,1.441.936s-.215-.389.6-.7a3.982,3.982,0,0,0,.828-.436,1.933,1.933,0,0,0,.737-.986h0s1.56-2.085.351-5.942c0,0,.157-1.1.019-1.267l-.925,1.267a2.6,2.6,0,0,1,1.068,1.588s-1-1.585-1.215-1.4c-.044.036-.458.693-.458.693a4.274,4.274,0,0,1,1.781,2.587s-.933-2.046-1.933-2.339l-.569,1.03a4.493,4.493,0,0,1,2.016,2.761s-1.052-2.1-2.126-2.526L182.537,541s1.745,1.1,1.905,2.485c0,0-1.461-2.308-1.985-2.234a5.272,5.272,0,0,0-.276,1.336s1.237.828,1.259,1.637c0,0-1.14-1.441-1.317-1.345a6.166,6.166,0,0,0,.276,2.209,4.39,4.39,0,0,1-.505-2.209,2.4,2.4,0,0,0-.729,1.176s-.329-.8.751-1.527a5.586,5.586,0,0,1,.226-1.265,5.181,5.181,0,0,0-1.657,1.27s.182-1.044,1.767-1.563l.4-1.1a7.534,7.534,0,0,0-2.076,1.262s.353-1.035,2.209-1.532l.552-1.016a8.976,8.976,0,0,0-2.1,1.016,3.554,3.554,0,0,1,2.264-1.3l.447-.638s-1.024.367-1.309.5-.342.066-.342.066a3.666,3.666,0,0,1,1.833-.828A8.638,8.638,0,0,0,185.022,536.09Z" transform="translate(-147.309 -407.784)" fill="#4596fd"/>
    <path id="路径_140" data-name="路径 140" d="M223.635,454.419a3.244,3.244,0,0,0,3.617-.235l-.017,2.239a58.042,58.042,0,0,0,2.01,7.132l1.339,4.605a36.011,36.011,0,0,1,1.474,10.014,9.569,9.569,0,0,0,.428,3.153c.712,1.933-.276,4.418-.712,5.337a22.273,22.273,0,0,1-2.209.621,1.517,1.517,0,0,0-.2.061v-.014a9.111,9.111,0,0,1-2.9.687.779.779,0,0,0-.552,1.358,4.05,4.05,0,0,1-1.339.177c-.895-.11-1.339,1.427.334,1.866s11.171,0,11.171,0a1.347,1.347,0,0,0,.715-1.488c.729-.028,1.184-.05,1.184-.05s1.676-.768,0-2.852l-.088.069-.359-1.055v-1.427s2.123-10.216,1.452-11.408-1-7.35-1-7.35l.224-6.693a15.882,15.882,0,0,0,1.074-4.741,10.1,10.1,0,0,0,.428-2.25c.025-.359.047-.737.061-1.129a7.579,7.579,0,0,0-.406-2.526,24.968,24.968,0,0,1,2.529-3.178,3.255,3.255,0,0,0,1-2.852l-.552-3.73L241,432.412a4.861,4.861,0,0,0-.607-3.357c.1-.569.188-1.14.257-1.712a21.909,21.909,0,0,0-.392-7.455,5.058,5.058,0,0,0-1.055-2.374c-.679-.732-1.778-1.179-2.029-2.137a6.956,6.956,0,0,0-.155-.721c-.246-.63-1.022-.856-1.7-.939a9.223,9.223,0,0,0-4.119.215,5,5,0,0,0-2.372,2.225,1.908,1.908,0,0,0-.276,1.381,1.811,1.811,0,0,0,.193.467,4.2,4.2,0,0,0-.276,1.472,4.282,4.282,0,0,0,2.733,3.97c.025.083.05.166.072.249a4.144,4.144,0,0,1,.108.6c-.019.389-.044.779-.064,1.165a1.309,1.309,0,0,1-.041.157,28.648,28.648,0,0,0-2.808,1.433c.671.986-.11,5.155-.11,5.155a4.249,4.249,0,0,0-1.565,6.143,6.5,6.5,0,0,1,.781,5.453l-.276,4.29h0l-.055.856h.022l-.022.326h.047v.351a5.147,5.147,0,0,0-2.615,1.933,6.925,6.925,0,0,1-1.171,1.436.861.861,0,0,0,.135,1.43Zm13.487-11.4a4.072,4.072,0,0,1,.4-2.156h.79c.028.185.058.362.1.522.226.977-.679,1.439-1.284,1.635Z" transform="translate(-178.415 -319.106)" fill="url(#linear-gradient)"/>
    <path id="路径_141" data-name="路径 141" d="M251.105,671.941l.431,1.289-1.392,1.4-4.622,1.074-3.332-.323.215-1.182h0a1.422,1.422,0,0,1,1.057-1.041c1.38-.323,3.981-1.055,4.531-2.076Z" transform="translate(-192.177 -505.504)" fill="#db8b8b"/>
    <path id="路径_142" data-name="路径 142" d="M251.105,671.941l.431,1.289-1.392,1.4-4.622,1.074-3.332-.323.215-1.182h0a1.422,1.422,0,0,1,1.057-1.041c1.38-.323,3.981-1.055,4.531-2.076Z" transform="translate(-192.177 -505.504)" opacity="0.1"/>
    <path id="路径_143" data-name="路径 143" d="M236.724,679.851l.646-.861-.646-.994a8.659,8.659,0,0,1-2.794.671c-.861-.108-1.289,1.4.323,1.828s10.748,0,10.748,0,1.612-.751,0-2.794l-1.392,1.074s-2.366,1.292-3.548,1.077Z" transform="translate(-185.642 -510.296)" fill="#2e3037"/>
    <path id="路径_144" data-name="路径 144" d="M235.55,680.832l3.332.32,4.622-1.074,1.4-1.4-.113-.342-.16-.48-.155-.467-3.117-.861a1.933,1.933,0,0,1-.632.635,13.472,13.472,0,0,1-3.9,1.441l-.135.039a1.416,1.416,0,0,0-.936,1Z" transform="translate(-187.37 -509.449)" fill="#db8b8b"/>
    <path id="路径_145" data-name="路径 145" d="M235.55,685.573l3.332.32,4.622-1.074,1.4-1.4-.113-.342-1.284.986s-2.363,1.292-3.548,1.077h-3.33l.643-.861-.58-.895a1.416,1.416,0,0,0-.936,1Z" transform="translate(-187.37 -514.19)" opacity="0.1"/>
    <path id="路径_146" data-name="路径 146" d="M230.1,685.3l.643-.862-.643-.994a8.66,8.66,0,0,1-2.8.671c-.864-.108-1.289,1.4.323,1.828s10.748,0,10.748,0,1.612-.751,0-2.794l-1.4,1.063s-2.363,1.292-3.548,1.077Z" transform="translate(-180.847 -514.241)" fill="#2e3037"/>
    <path id="路径_147" data-name="路径 147" d="M249.18,450.2s5.16.536,4.418-1.612a3.907,3.907,0,0,1-.16-1.9,5.277,5.277,0,0,1,.914-2.187l-4.837.754a6.1,6.1,0,0,1,.654,1.552A3.184,3.184,0,0,1,249.18,450.2Z" transform="translate(-197.237 -341.482)" fill="#db8b8b"/>
    <path id="路径_148" data-name="路径 148" d="M264.7,553.9s-.108,4.622-1.182,6.88l-.226,6.555s.323,6.019.966,7.2-1.4,11.179-1.4,11.179v1.717s-3.437,1.292-4.418-.213l.983-12.792L259,556.689Z" transform="translate(-203.94 -420.677)" fill="#474463"/>
    <path id="路径_149" data-name="路径 149" d="M264.7,553.9s-.108,4.622-1.182,6.88l-.226,6.555s.323,6.019.966,7.2-1.4,11.179-1.4,11.179v1.717s-3.437,1.292-4.418-.213l.983-12.792L259,556.689Z" transform="translate(-203.94 -420.677)" opacity="0.1"/>
    <path id="路径_150" data-name="路径 150" d="M276.207,500.17l.643,1.72.538,3.656a3.23,3.23,0,0,1-.966,2.794,30.727,30.727,0,0,0-3.009,3.979L271.37,506.2s2.043-.323,1.72-1.72a19.96,19.96,0,0,1-.215-3.979Z" transform="translate(-213.3 -381.781)" fill="#fc6681"/>
    <path id="路径_151" data-name="路径 151" d="M276.207,500.17l.643,1.72.538,3.656a3.23,3.23,0,0,1-.966,2.794,30.727,30.727,0,0,0-3.009,3.979L271.37,506.2s2.043-.323,1.72-1.72a19.96,19.96,0,0,1-.215-3.979Z" transform="translate(-213.3 -381.781)" opacity="0.05"/>
    <path id="路径_152" data-name="路径 152" d="M254.29,677.165a2.675,2.675,0,0,0,3.9.693l-.155-.467-3.117-.861a1.933,1.933,0,0,1-.632.635Z" transform="translate(-200.936 -509.449)" opacity="0.1"/>
    <path id="路径_153" data-name="路径 153" d="M238.67,537.793a57.612,57.612,0,0,0,1.933,6.988l1.289,4.511a35.774,35.774,0,0,1,1.416,9.813,9.664,9.664,0,0,0,.422,3.09c.861,2.363-.859,5.588-.859,5.588,1.5,2.686,4.083.861,4.083.861v-1.72s2.043-9.351,1.5-11.179a44.48,44.48,0,0,1-.751-6.773v-8.921a10.138,10.138,0,0,0,2.938-6.422c.028-.351.047-.721.061-1.1.088-2.427-1.571-5.268-2.209-6.284-.155-.243-.251-.381-.251-.381l-9.5,3.766h-.022v1.182Z" transform="translate(-189.629 -400.378)" fill="#474463"/>
    <path id="路径_154" data-name="路径 154" d="M250.35,445.254a6.1,6.1,0,0,1,.654,1.552,4.183,4.183,0,0,0,3.269-.119,5.276,5.276,0,0,1,.914-2.187Z" transform="translate(-198.084 -341.482)" opacity="0.1"/>
    <circle id="椭圆_23" data-name="椭圆 23" cx="4.191" cy="4.191" r="4.191" transform="translate(50.223 97.002)" fill="#db8b8b"/>
    <path id="路径_155" data-name="路径 155" d="M238.67,530.793h.044c4.509.925,10.166-3.771,10.166-3.771a5.765,5.765,0,0,1-.392-.8c-.155-.243-.251-.381-.251-.381l-9.492,3.771-.025.376Z" transform="translate(-189.629 -400.364)" opacity="0.1"/>
    <path id="路径_156" data-name="路径 156" d="M236.786,458.158s6.019-3.655,7.954-2.151l2.686,3.44s1.72.536,1.4,3.976l1.289,6.234-3.865.969a4.213,4.213,0,0,0-.447,5.271s-5.7,4.729-10.216,3.763l.32-5.053a6.537,6.537,0,0,0-.751-5.373,4.2,4.2,0,0,1,1.5-6.022C236.664,463.2,237.418,459.124,236.786,458.158Z" transform="translate(-186.549 -349.549)" fill="#fc6681"/>
    <path id="路径_157" data-name="路径 157" d="M229.364,544.17a5.547,5.547,0,0,0-3.332,2.148,6.64,6.64,0,0,1-1.124,1.405.853.853,0,0,0,.133,1.361c.853.511,2.245.828,4-.616C232.051,545.995,229.364,544.17,229.364,544.17Z" transform="translate(-179.464 -413.633)" fill="#db8b8b"/>
    <path id="路径_158" data-name="路径 158" d="M244.266,471.929s2.151-.215,2.686,5.376,1.4,6.88,1.4,6.88.538,2.9-.751,4.622-3.763,5.373-3.763,5.373a2.488,2.488,0,0,1-3.225-1.933l3.332-6.234a4.469,4.469,0,0,0-.751-3.653C241.9,480.855,240.933,470.855,244.266,471.929Z" transform="translate(-191.033 -361.279)" opacity="0.1"/>
    <path id="路径_159" data-name="路径 159" d="M243.486,470.786s2.151-.215,2.686,5.373,1.4,6.88,1.4,6.88.536,2.9-.754,4.622-3.763,5.373-3.763,5.373a2.488,2.488,0,0,1-3.225-1.933l3.332-6.234a4.476,4.476,0,0,0-.751-3.656C241.122,479.706,240.153,469.7,243.486,470.786Z" transform="translate(-190.468 -360.451)" fill="#fc6681"/>
    <path id="路径_160" data-name="路径 160" d="M246.6,485.57s-.215,3.333.751,5.16.969,4.191,0,5.483" transform="translate(-195.352 -371.212)" opacity="0.1"/>
    <path id="路径_161" data-name="路径 161" d="M244.7,465.988s.861-.859,3.332-.966a7.128,7.128,0,0,0,3.548-.861" transform="translate(-193.994 -355.714)" opacity="0.1"/>
    <path id="路径_162" data-name="路径 162" d="M249.582,417.946c.652.08,1.4.3,1.634.919a6.839,6.839,0,0,1,.149.707c.243.939,1.3,1.38,1.952,2.1a4.986,4.986,0,0,1,1.016,2.325,21.864,21.864,0,0,1,.378,7.3c-.21,1.784-.638,3.54-.759,5.329a8.423,8.423,0,0,0,1.08,5.18,12.7,12.7,0,0,1,1.273,1.933,3.721,3.721,0,0,1-2.258.6q-1.38.044-2.761,0a2.954,2.954,0,0,1-1.411-.293,2.157,2.157,0,0,1-.74-.8,5.693,5.693,0,0,1-.641-3.018c.022-1.044.188-2.076.207-3.117a2.8,2.8,0,0,0-.359-1.634,5.3,5.3,0,0,0-.9-.828,5.708,5.708,0,0,1-1.582-4.191c-.039-1.535.213-3.076.083-4.608-.05-.6-.276-1.32-.864-1.436a3.744,3.744,0,0,1-.552-.072c-.475-.182-.428-.85-.552-1.339-.152-.552-.618-.972-.751-1.527-.309-1.3,1.345-2.852,2.43-3.313A8.611,8.611,0,0,1,249.582,417.946Z" transform="translate(-192.895 -322.172)" opacity="0.1"/>
    <path id="路径_163" data-name="路径 163" d="M249.936,417.177c.652.083,1.4.306,1.634.919a6.734,6.734,0,0,1,.149.71c.243.939,1.3,1.381,1.952,2.093a4.987,4.987,0,0,1,1.016,2.325,21.864,21.864,0,0,1,.378,7.3c-.21,1.784-.638,3.54-.759,5.329a8.423,8.423,0,0,0,1.08,5.18,12.7,12.7,0,0,1,1.273,1.933,3.721,3.721,0,0,1-2.258.6q-1.38.044-2.775,0a2.954,2.954,0,0,1-1.411-.293,2.17,2.17,0,0,1-.74-.792,5.682,5.682,0,0,1-.641-3.021c.022-1.044.188-2.076.207-3.117a2.808,2.808,0,0,0-.359-1.634,5.411,5.411,0,0,0-.9-.828,5.706,5.706,0,0,1-1.585-4.191c-.039-1.538.215-3.076.086-4.608-.05-.6-.276-1.32-.864-1.436a3.754,3.754,0,0,1-.552-.072c-.475-.182-.428-.85-.552-1.339-.152-.552-.618-.972-.751-1.527-.309-1.3,1.345-2.852,2.43-3.313A8.826,8.826,0,0,1,249.936,417.177Z" transform="translate(-193.142 -321.619)" fill="#472727"/>
    <ellipse id="椭圆_24" data-name="椭圆 24" cx="6.626" cy="0.911" rx="6.626" ry="0.911" transform="translate(258.745 190.331)" fill="#4596fd" opacity="0.1"/>
    <ellipse id="椭圆_25" data-name="椭圆 25" cx="6.626" cy="0.911" rx="6.626" ry="0.911" transform="translate(233.36 192.907)" fill="#4596fd" opacity="0.1"/>
    <path id="路径_187" data-name="路径 187" d="M6.626,0c3.66,0,6.626.408,6.626.911s-2.967.911-6.626.911S0,1.414,0,.911,2.967,0,6.626,0Z" transform="translate(203.462 189.423)" fill="#4596fd" opacity="0.1"/>
    <ellipse id="椭圆_27" data-name="椭圆 27" cx="4.71" cy="0.646" rx="4.71" ry="0.646" transform="translate(246.437 199.5)" fill="#4596fd" opacity="0.1"/>
    <ellipse id="椭圆_28" data-name="椭圆 28" cx="4.71" cy="0.646" rx="4.71" ry="0.646" transform="translate(219.092 199.851)" fill="#4596fd" opacity="0.1"/>
    <path id="路径_164" data-name="路径 164" d="M855.762,640.7s9.293-30.464-1.455-42.668c-8.04-9.128-17.165-8.037-21.259-6.9a7.557,7.557,0,0,0-4.876,4.053c-1.427,3.081-1.171,8.087,8.918,13.926,16.889,9.777,17.946,23.192,17.946,23.192Z" transform="translate(-615.916 -447.09)" fill="#4596fd"/>
    <path id="路径_165" data-name="路径 165" d="M852.77,608.71s27.4,8.559,21.259,45.255" transform="translate(-634.178 -460.354)" fill="none" stroke="#565987" stroke-miterlimit="10" stroke-width="1"/>
    <path id="路径_166" data-name="路径 166" d="M903.365,619.84s-3.774,2.54-2.573,6.35" transform="translate(-668.77 -468.411)" fill="none" stroke="#565987" stroke-miterlimit="10" stroke-width="1"/>
    <path id="路径_167" data-name="路径 167" d="M862.72,624.22s2.308-2.347,5.113-1.052" transform="translate(-641.381 -470.538)" fill="none" stroke="#565987" stroke-miterlimit="10" stroke-width="1"/>
    <path id="路径_168" data-name="路径 168" d="M902,668.724s4.048-2.054,5.094.519" transform="translate(-669.816 -503.236)" fill="none" stroke="#565987" stroke-miterlimit="10" stroke-width="1"/>
    <path id="路径_169" data-name="路径 169" d="M930.125,686.24s-3.037-.243-3.1,1.212" transform="translate(-687.935 -516.467)" fill="none" stroke="#565987" stroke-miterlimit="10" stroke-width="1"/>
    <path id="路径_170" data-name="路径 170" d="M888.052,716.7s-10.884-22.143-13.874-21.657c-1.419.229-2.073,1.626-2.372,3.037a8.909,8.909,0,0,0,.594,5.389C873.941,707,878.082,713.731,888.052,716.7Z" transform="translate(-647.831 -522.842)" fill="#4596fd"/>
    <path id="路径_171" data-name="路径 171" d="M881.15,710.28s11.425,16.566,13.634,17.295" transform="translate(-654.722 -533.881)" fill="none" stroke="#565987" stroke-miterlimit="10" stroke-width="1"/>
    <line id="直线_12" data-name="直线 12" x2="2.667" transform="translate(225.376 178.986)" fill="none" stroke="#565987" stroke-miterlimit="10" stroke-width="1"/>
    <line id="直线_13" data-name="直线 13" x2="4.18" y2="0.179" transform="translate(228.57 185.047)" fill="none" stroke="#565987" stroke-miterlimit="10" stroke-width="1"/>
    <line id="直线_14" data-name="直线 14" x1="0.453" y2="2.178" transform="translate(230.66 180.198)" fill="none" stroke="#565987" stroke-miterlimit="10" stroke-width="1"/>
    <line id="直线_15" data-name="直线 15" x1="0.08" y2="1.98" transform="translate(235.478 186.825)" fill="none" stroke="#565987" stroke-miterlimit="10" stroke-width="1"/>
    <path id="路径_172" data-name="路径 172" d="M929.94,716.7s10.884-22.143,13.874-21.657c1.422.229,2.076,1.626,2.372,3.037a8.91,8.91,0,0,1-.594,5.389C944.037,707,939.9,713.731,929.94,716.7Z" transform="translate(-690.042 -522.842)" fill="#4596fd"/>
    <path id="路径_173" data-name="路径 173" d="M944.161,710.28s-11.425,16.566-13.631,17.295" transform="translate(-690.469 -533.881)" fill="none" stroke="#565987" stroke-miterlimit="10" stroke-width="1"/>
    <line id="直线_16" data-name="直线 16" x1="2.667" transform="translate(252.074 178.986)" fill="none" stroke="#565987" stroke-miterlimit="10" stroke-width="1"/>
    <line id="直线_17" data-name="直线 17" x1="4.18" y2="0.179" transform="translate(247.367 185.047)" fill="none" stroke="#565987" stroke-miterlimit="10" stroke-width="1"/>
    <line id="直线_18" data-name="直线 18" x2="0.453" y2="2.178" transform="translate(249.004 180.198)" fill="none" stroke="#565987" stroke-miterlimit="10" stroke-width="1"/>
    <line id="直线_19" data-name="直线 19" x2="0.08" y2="1.98" transform="translate(244.559 186.825)" fill="none" stroke="#565987" stroke-miterlimit="10" stroke-width="1"/>
    <path id="路径_174" data-name="路径 174" d="M860.557,784.382a1.88,1.88,0,0,1-.618-.936.828.828,0,0,1,.433-.953,1.209,1.209,0,0,1,1.143.4,1.516,1.516,0,0,0,1.1.538,1.7,1.7,0,0,1-.525-1.588.667.667,0,0,1,.146-.32c.221-.238.621-.135.886.05a3.338,3.338,0,0,1,1.08,2.761,5.208,5.208,0,0,0,0-1.138,1.168,1.168,0,0,1,.428-1.005,1.285,1.285,0,0,1,.652-.155,1.353,1.353,0,0,1,1.057.3,1.051,1.051,0,0,1-.041,1.3,4.044,4.044,0,0,1-1.1.875,2.457,2.457,0,0,0-.781.745.964.964,0,0,0-.058.133h-2.366a6.537,6.537,0,0,1-1.436-1.01Z" transform="translate(-639.348 -585.356)" fill="#4596fd"/>
    <path id="路径_175" data-name="路径 175" d="M1010.778,752.118a1.881,1.881,0,0,1-.618-.936.828.828,0,0,1,.431-.95,1.207,1.207,0,0,1,1.146.4,1.591,1.591,0,0,0,1.1.552,1.7,1.7,0,0,1-.525-1.588.668.668,0,0,1,.146-.32c.221-.237.621-.135.886.05a3.337,3.337,0,0,1,1.079,2.761,5.212,5.212,0,0,0,0-1.138,1.168,1.168,0,0,1,.428-1,1.283,1.283,0,0,1,.652-.155,1.341,1.341,0,0,1,1.055.3,1.047,1.047,0,0,1-.041,1.3,4.031,4.031,0,0,1-1.1.875,2.458,2.458,0,0,0-.781.745.987.987,0,0,0-.058.133h-2.366A6.538,6.538,0,0,1,1010.778,752.118Z" transform="translate(-748.093 -562.01)" fill="#4596fd"/>
    <path id="路径_176" data-name="路径 176" d="M960.71,784.382a1.886,1.886,0,0,1-.621-.936.828.828,0,0,1,.433-.953,1.215,1.215,0,0,1,1.146.4,1.522,1.522,0,0,0,1.1.538,1.693,1.693,0,0,1-.525-1.588.643.643,0,0,1,.146-.32c.221-.238.619-.135.884.05a3.33,3.33,0,0,1,1.079,2.761,5.22,5.22,0,0,0,.017-1.138,1.165,1.165,0,0,1,.425-1.005,1.292,1.292,0,0,1,.652-.155,1.35,1.35,0,0,1,1.057.3,1.051,1.051,0,0,1-.041,1.3,4.076,4.076,0,0,1-1.1.875,2.4,2.4,0,0,0-.781.745.71.71,0,0,0-.058.133h-2.369A6.518,6.518,0,0,1,960.71,784.382Z" transform="translate(-711.847 -585.356)" fill="#4596fd"/>
    <path id="路径_177" data-name="路径 177" d="M815.191,726.94s-.889,1.16.409,2.913,2.369,3.233,1.933,4.326c0,0-1.958-3.255-3.551-3.313S813.438,728.889,815.191,726.94Z" transform="translate(-605.531 -545.941)" fill="#4596fd"/>
    <path id="路径_178" data-name="路径 178" d="M815.2,726.94a1.376,1.376,0,0,0-.182.364c-1.554,1.825-2.383,3.531-.889,3.573,1.394.041,3.065,2.532,3.462,3.158a.866.866,0,0,1-.047.144s-1.958-3.255-3.551-3.313S813.443,728.889,815.2,726.94Z" transform="translate(-605.536 -545.941)" opacity="0.1"/>
    <path id="路径_179" data-name="路径 179" d="M814.44,731.616c0,.409.047.74.1.74s.1-.331.1-.74-.055-.215-.113-.215S814.44,731.207,814.44,731.616Z" transform="translate(-606.431 -549.137)" fill="#ffd037"/>
    <path id="路径_180" data-name="路径 180" d="M811.817,733.33c.359.193.671.312.7.262s-.24-.249-.6-.445-.218-.052-.246,0S811.458,733.134,811.817,733.33Z" transform="translate(-604.374 -550.362)" fill="#ffd037"/>
    <path id="路径_181" data-name="路径 181" d="M831.007,726.94s.886,1.16-.411,2.913-2.366,3.233-1.933,4.326c0,0,1.958-3.255,3.553-3.313S832.76,728.889,831.007,726.94Z" transform="translate(-616.656 -545.941)" fill="#4596fd"/>
    <path id="路径_182" data-name="路径 182" d="M831.134,726.94a1.423,1.423,0,0,1,.18.364c1.557,1.825,2.385,3.531.889,3.573-1.38.041-3.062,2.532-3.462,3.158a.458.458,0,0,0,.047.144s1.958-3.255,3.553-3.313S832.887,728.889,831.134,726.94Z" transform="translate(-616.783 -545.941)" opacity="0.1"/>
    <path id="路径_183" data-name="路径 183" d="M842.844,731.616c0,.409-.044.74-.1.74s-.1-.331-.1-.74.058-.215.113-.215S842.844,731.207,842.844,731.616Z" transform="translate(-626.845 -549.137)" fill="#ffd037"/>
    <path id="路径_184" data-name="路径 184" d="M843.6,733.33c-.359.193-.674.312-.7.262s.24-.249.6-.445.218-.052.246,0S843.963,733.134,843.6,733.33Z" transform="translate(-627.036 -550.362)" fill="#ffd037"/>
    <path id="路径_185" data-name="路径 185" d="M818.142,749.093s-2.485-.077-3.23-.61-3.818-1.168-4-.312-3.733,4.249-.928,4.271,6.51-.436,7.259-.892S818.142,749.093,818.142,749.093Z" transform="translate(-602.424 -561.007)" fill="#a8a8a8"/>
    <path id="路径_186" data-name="路径 186" d="M809.93,755.654c2.805.022,6.513-.436,7.261-.892.566-.345.8-1.588.87-2.162h.083s-.157,2-.9,2.457-4.456.914-7.259.892c-.809,0-1.091-.3-1.074-.721C809.021,755.488,809.328,755.648,809.93,755.654Z" transform="translate(-602.426 -564.516)" opacity="0.2"/>
    <ellipse id="椭圆_29" data-name="椭圆 29" cx="9.586" cy="1.416" rx="9.586" ry="1.416" transform="translate(36.606 193.531)" fill="#4596fd" opacity="0.1"/>
    <ellipse id="椭圆_30" data-name="椭圆 30" cx="9.586" cy="1.416" rx="9.586" ry="1.416" transform="translate(59.818 206.245)" fill="#4596fd" opacity="0.1"/>
    <ellipse id="椭圆_31" data-name="椭圆 31" cx="6.347" cy="0.71" rx="6.347" ry="0.71" transform="translate(165.46 173.823)" fill="#4596fd" opacity="0.1"/>
    <ellipse id="椭圆_32" data-name="椭圆 32" cx="6.347" cy="0.71" rx="6.347" ry="0.71" transform="translate(135.788 194.238)" fill="#4596fd" opacity="0.1"/>
    <ellipse id="椭圆_33" data-name="椭圆 33" cx="6.347" cy="0.71" rx="6.347" ry="0.71" transform="translate(122.411 206.952)" fill="#4596fd" opacity="0.1"/>
  </g>
</svg>
